<svg xmlns="http://www.w3.org/2000/svg" xml:space="preserve" viewBox="0 0 1140 1030"><path fill="#4181ee" d="M1018.856 817.045c-.042 20.106 1.606 40.289-3.928 60.074-7.379 26.383-21.973 47.78-43.782 64.238-21.314 16.086-45.586 23.58-72.112 23.587-224.646.064-449.292.076-673.938-.011-29.874-.012-56.32-9.87-79.063-29.39-1.119-.96-2.394-1.738-3.896-2.816L605.604 441.68l-67.858-67.617-432.03 408.652v-6.59c-.02-200.647.008-401.295-.135-601.943-.014-19.275 2.911-37.751 11.366-55.153 11.945-24.588 30.057-43.037 54.573-55.385 18.445-9.29 37.981-12.44 58.355-12.435 198.815.045 397.63.027 596.445.027h7.315c.104 2.325.25 4.096.252 5.866.034 20.498-.198 41 .116 61.493.614 40.152 17.531 72.005 49.895 95.59 20.98 15.287 44.719 22.09 70.58 21.975 19.499-.086 38.997-.017 58.495-.017h6.004c0 181.86 0 363.276-.39 545.241-1.486.94-2.615 1.254-3.671 1.731-24.669 11.128-49.272 22.404-74.031 33.324-6.17 2.721-12.78 4.527-19.303 6.332-3.905 1.081-7.311.217-8.116-4.727-.208-1.278-1.06-2.439-1.383-3.712-2.775-10.92-5.125-21.964-8.348-32.749-2.746-9.187-6.144-18.223-9.93-27.036-1.651-3.844-5.118-6.876-7.527-10.435-2.109-3.116-3.423-6.886-5.923-9.596-4.135-4.483-10.362-6.516-14.141-11.743-1.09-1.506-4.584-1.034-6.429-2.28-4.464-3.014-9.118-4.777-14.56-5.111-8.042-.493-16.047-1.58-24.078-2.294-2.106-.188-4.349-.318-6.362.189-6.917 1.741-13.78 3.71-20.625 5.722-5.638 1.656-11.483 2.93-16.776 5.371-11.502 5.306-22.995 10.753-33.963 17.06-13.23 7.609-26.134 15.844-38.777 24.402-14.876 10.07-29.311 20.788-43.955 31.2-8.122 5.775-16.28 11.498-24.6 17.063-.305-.298-.428-.416-.52-.9 5.192-14.366 10.39-28.35 15.495-42.37 3.951-10.85 8.902-21.494 11.398-32.679 3.45-15.454 5.145-31.312 7.31-47.035.785-5.7 1.367-11.56.92-17.26-.38-4.84-2.886-9.482-3.555-14.335-1.937-14.051-11.002-22.725-21.95-29.992-2.063-1.369-4.876-1.607-7.61-2.449-.043.258-.18 1.059-.276 1.617-2.493-.898-5.283-3.015-7.123-2.38-9.621 3.324-20.264.552-29.668 6.252-7.2 4.364-15.978 6.03-23.622 9.779-7.436 3.646-14.086 8.891-21.515 12.555-7.317 3.608-12.224 10.168-19.464 13.993-7.22 3.814-13.396 9.657-19.845 14.84-1.648 1.326-2.329 3.826-3.936 5.24-2.088 1.835-4.89 2.86-6.98 4.693-9.295 8.157-18.665 16.251-27.579 24.815-6.833 6.564-13.117 13.713-19.451 20.776-2.142 2.388-3.561 5.409-5.547 7.956-1.516 1.945-3.526 3.499-5.1 5.405-2.68 3.247-5.081 6.727-7.82 9.92-1.267 1.478-3.457 2.232-4.534 3.794-4.732 6.865-9.201 13.91-13.785 20.878-2.821 4.289-6.404 7.956-9.233 12.357-3.704 5.762-7.35 11.35-10.22 17.644-2.221 4.872-6.364 8.834-8.944 13.586-2.838 5.228-5.313 10.751-7.142 16.406-2.845 8.796-5.585 17.701-7.32 26.76-2.17 11.321-1.611 22.09 7.52 31.297 5.825 5.872 12.387 8.999 20.135 9.394 3.965.203 8.038-1.712 12.062-2.67l.183-2.16c-3.769-2.203-7.631-4.26-11.288-6.635-14.396-9.349-15.575-10.73-13.876-26.23.572-5.214 2.85-10.336 4.897-15.272 3.158-7.617 6.183-15.394 10.344-22.467 8.622-14.656 16.61-29.741 27.637-42.901 4.777-5.701 8.392-12.377 13.181-18.067 5.934-7.05 12.406-13.666 18.88-20.239 12.493-12.684 25.161-25.195 37.726-37.81 1.52-1.526 2.6-3.585 4.303-4.817 7.492-5.422 15.214-10.524 22.7-15.954 4.88-3.54 9.25-7.82 14.28-11.11 13.719-8.972 27.406-18.048 41.606-26.212 11.38-6.543 23.605-11.328 36.954-12.737 9.536-1.007 17.462 3.856 19.324 13.12 1.072 5.339 1.81 10.842 1.816 16.271.005 5.4-1.065 10.806-1.717 16.203-.644 5.325-.78 10.796-2.161 15.928-2.463 9.146-5.646 18.102-8.621 27.107-3.123 9.45-6.045 18.985-9.638 28.256-3.025 7.805-6.868 15.294-10.385 22.906-2.009 4.348-4.4 8.547-6.067 13.018a332.34 332.34 0 0 0-7.379 22.192c-1.107 3.76-2.09 7.799-1.855 11.633.18 2.916 2.444 5.678 3.653 8.561 2.594 6.185 8.36 9.156 13.889 9.152 6.245-.004 13.055.623 19.028-3.543 10.894-7.598 22.27-14.503 33.25-21.982 3.707-2.526 6.374-7.156 10.327-8.59 4.632-1.68 7.273-4.655 10.012-8.084.402-.502.99-.879 1.543-1.232 6.776-4.333 13.562-8.648 20.339-12.978.276-.176.473-.47.737-.668 5.143-3.847 10.134-7.92 15.478-11.462 5.374-3.561 11.156-6.501 16.658-9.876 7.116-4.365 13.928-9.268 21.245-13.25 8.531-4.643 17.172-9.382 26.289-12.591 18.653-6.565 37.053-14.453 57.392-2.93 7.806 4.424 12.901 9.799 16.733 17.042 2.175 4.112 3.379 8.77 4.77 13.26 3.061 9.876 5.963 19.802 8.594 28.584l.33-1.868c.92 2.95.312 5.92.806 8.696.452 2.537 2.087 4.865 3.216 7.278 3.595 7.684 3.997 16.47 11.153 22.994 8.897 8.111 18.865 11.25 29.834 8.812 12.551-2.79 24.693-7.456 36.955-11.483 4.073-1.338 7.922-3.34 11.953-4.823 5.768-2.121 11.746-3.724 17.376-6.149 4.814-2.074 9.1-5.38 13.921-7.43 4.576-1.947 9.545-2.97 14.34-4.399M560.06 168.38c-7.98-.455-15.954-1.106-23.94-1.332-39.643-1.122-78.852 2.801-117.552 11.242-16.405 3.578-32.553 8.352-48.764 12.78-1.545.422-3.913 2.32-3.852 3.42.467 8.4 1.442 16.771 2.275 25.323 1.992 0 3.307.027 4.62-.003 27.81-.634 55.62-1.344 83.431-1.89 24.528-.483 48.968.363 73 5.993 15.666 3.67 30.88 8.497 43.542 18.968 11.786 9.745 16.512 22.171 13.433 37.368-2.685 13.255-9.915 24.019-19.24 33.243-8.72 8.626-18.302 16.381-28.753 25.623L639.536 440.38c4.964-4.688 8.613-8.337 12.475-11.744 15.186-13.398 31.078-25.734 50.711-32.09 29.454-9.537 59.53 7.097 67.342 37.177 3.516 13.537 3.167 27.056-.57 40.458-.962 3.448-.507 5.772 2.14 8.372a4113.501 4113.501 0 0 1 45.996 45.91c2.814 2.851 4.518 3.174 7.552.116 32.733-33.013 65.616-65.875 98.45-98.787 1.268-1.271 2.45-2.628 3.604-3.873-.43-.817-.567-1.346-.902-1.675-14.259-14.003-28.261-28.283-42.904-41.873-9.963-9.248-22.222-13.063-35.955-11.595-14.538 1.554-27.891-1.235-39.08-11.283-14.226-12.775-25.87-26.899-25.865-47.53.004-16.891-6.293-31.47-17.292-44.141-22.995-26.491-50.241-47.59-81.275-63.809-38.578-20.16-79.737-31.483-123.903-35.632z"/><path fill="#ff8e40" d="M636.268 814.275c8.141-5.746 16.3-11.47 24.42-17.244 14.645-10.412 29.08-21.13 43.956-31.2 12.643-8.558 25.546-16.793 38.777-24.402 10.968-6.307 22.461-11.754 33.963-17.06 5.293-2.442 11.138-3.715 16.776-5.371 6.845-2.012 13.708-3.98 20.625-5.722 2.013-.507 4.256-.377 6.362-.19 8.031.715 16.036 1.802 24.078 2.295 5.442.334 10.096 2.097 14.56 5.112 1.845 1.245 5.34.773 6.429 2.28 3.779 5.226 10.006 7.26 14.141 11.742 2.5 2.71 3.814 6.48 5.923 9.596 2.409 3.559 5.876 6.591 7.527 10.435 3.786 8.813 7.184 17.849 9.93 27.036 3.223 10.785 5.573 21.83 8.348 32.75.324 1.272 1.175 2.433 1.383 3.71.805 4.945 4.21 5.809 8.116 4.728 6.524-1.805 13.133-3.61 19.303-6.332 24.76-10.92 49.362-22.196 74.03-33.324 1.057-.477 2.186-.791 3.642-1.28.37 11.424.38 22.946.344 34.84-4.841 1.8-9.81 2.823-14.386 4.77-4.822 2.05-9.107 5.356-13.921 7.43-5.63 2.425-11.608 4.028-17.376 6.149-4.03 1.482-7.88 3.485-11.953 4.823-12.262 4.027-24.404 8.694-36.955 11.483-10.969 2.437-20.937-.7-29.834-8.812-7.156-6.524-7.558-15.31-11.153-22.994-1.13-2.413-2.764-4.741-3.216-7.278-.494-2.775.114-5.747-.807-8.696l-.33 1.868c-2.63-8.782-5.532-18.708-8.593-28.585-1.391-4.49-2.595-9.147-4.77-13.26-3.832-7.242-8.927-12.617-16.733-17.04-20.339-11.524-38.739-3.636-57.392 2.929-9.117 3.209-17.758 7.948-26.289 12.59-7.317 3.983-14.129 8.886-21.245 13.25-5.502 3.376-11.284 6.316-16.658 9.877-5.344 3.541-10.335 7.615-15.478 11.462-.264.198-.461.492-.737.668-6.777 4.33-13.563 8.645-20.339 12.978-.553.353-1.141.73-1.543 1.232-2.739 3.43-5.38 6.405-10.012 8.085-3.953 1.433-6.62 6.063-10.327 8.589-10.98 7.48-22.356 14.384-33.25 21.982-5.973 4.166-12.783 3.54-19.028 3.543-5.529.004-11.295-2.967-13.889-9.152-1.21-2.883-3.473-5.645-3.653-8.56-.236-3.835.748-7.874 1.855-11.634a332.34 332.34 0 0 1 7.38-22.192c1.667-4.471 4.057-8.67 6.066-13.018 3.517-7.612 7.36-15.101 10.385-22.906 3.593-9.271 6.515-18.806 9.638-28.256 2.975-9.005 6.158-17.96 8.62-27.107 1.382-5.132 1.518-10.603 2.162-15.928.652-5.397 1.722-10.802 1.717-16.203-.006-5.43-.744-10.932-1.816-16.27-1.862-9.265-9.788-14.128-19.324-13.121-13.349 1.41-25.575 6.194-36.954 12.737-14.2 8.164-27.887 17.24-41.606 26.212-5.03 3.29-9.4 7.57-14.28 11.11-7.486 5.43-15.208 10.532-22.7 15.954-1.703 1.232-2.783 3.291-4.303 4.817-12.565 12.615-25.233 25.126-37.726 37.81-6.474 6.573-12.946 13.189-18.88 20.239-4.789 5.69-8.404 12.366-13.181 18.067-11.028 13.16-19.015 28.245-27.637 42.9-4.161 7.074-7.186 14.851-10.344 22.468-2.046 4.936-4.325 10.058-4.897 15.272-1.7 15.5-.52 16.881 13.876 26.23 3.657 2.375 7.52 4.432 11.288 6.635l-.183 2.16c-4.024.958-8.097 2.873-12.062 2.67-7.748-.395-14.31-3.522-20.135-9.394-9.131-9.207-9.69-19.976-7.52-31.296 1.735-9.06 4.475-17.965 7.32-26.76 1.83-5.656 4.304-11.179 7.142-16.407 2.58-4.752 6.723-8.714 8.944-13.586 2.87-6.294 6.516-11.882 10.22-17.644 2.83-4.4 6.412-8.068 9.233-12.357 4.584-6.967 9.053-14.013 13.785-20.878 1.077-1.562 3.267-2.316 4.534-3.794 2.739-3.193 5.14-6.673 7.82-9.92 1.574-1.906 3.584-3.46 5.1-5.405 1.986-2.547 3.405-5.568 5.547-7.956 6.334-7.063 12.618-14.212 19.451-20.776 8.914-8.564 18.284-16.658 27.58-24.815 2.09-1.834 4.89-2.858 6.98-4.694 1.606-1.413 2.287-3.913 3.935-5.238 6.45-5.184 12.625-11.027 19.845-14.84 7.24-3.826 12.147-10.386 19.464-13.994 7.43-3.664 14.08-8.909 21.515-12.555 7.644-3.748 16.422-5.415 23.622-9.779 9.404-5.7 20.047-2.928 29.668-6.251 1.84-.636 4.63 1.481 7.123 2.379l.277-1.617c2.733.842 5.546 1.08 7.609 2.45 10.948 7.266 20.013 15.94 21.95 29.991.669 4.853 3.175 9.496 3.555 14.336.447 5.699-.135 11.558-.92 17.259-2.165 15.723-3.86 31.58-7.31 47.035-2.496 11.185-7.447 21.829-11.398 32.68-5.104 14.019-10.303 28.003-15.661 42.563-.164.799-.127 1.037-.09 1.275l.955-.388z"/><path fill="#4181ee" d="M851.298 159.627c-4.954-12.48-8.15-25.001-8.254-38.09-.173-21.945-.047-43.892-.047-64.984L1013.445 227c-.655 0-2.238.013-3.82-.002-22.471-.212-45.048.874-67.39-.935-37.76-3.058-66.017-22.386-85.167-55-2.093-3.564-3.74-7.39-5.77-11.436zM636.088 814.094c-.138.31-.457.44-.776.57-.036-.239-.073-.477.058-.91.29-.076.414.042.718.34z"/></svg>