<svg xmlns="http://www.w3.org/2000/svg" xml:space="preserve" viewBox="135.4 122 1343.6 802">
  <!-- Blue JOB --> <path fill="#517fe6" d="M987 563q-5 15-20 16-6 1-7 7-14 70-66 119-33 31-76 47a225 225 0 0 1-85 13q-48-2-91-23a222 222 0 0 1-57-40 195 195 0 0 1-32-40l-13-22q-1-4-6-3c-11 2-24-8-27-18a247 247 0 0 1-12-61l-1-33a23 23 0 0 1 21-22q6-1 7-6 9-46 35-83a220 220 0 0 1 86-74 218 218 0 0 1 139-19q47 9 86 36a222 222 0 0 1 74 86l5 3 11 1q12 2 16 15a226 226 0 0 1 13 60zm-120 30-32 4-52 7-38 5-42 6-36 4-36 5 1 2 6 6a134 134 0 0 0 58 40q29 10 60 6 29-3 53-17 30-17 49-47 6-10 10-21zm-131 8 37-5 31-4 49-6 51-8 58-7q18-2 17-15a231 231 0 0 0-13-89q-6-15-22-12l-47 6-25 3-38 6-37 5-31 4-45 6-43 6-31 4-51 7-45 5-35 5q-12 3-14 15l1 11q-1 41 13 78 4 13 17 12l26-3 40-6 50-6 43-6 9-1zm-83-165a135 135 0 0 0-39 54l238-31c-45-61-136-75-199-23m122 319a220 220 0 0 0 90-36 214 214 0 0 0 83-114l6-24q-9-1-10 8a181 181 0 0 1-20 53 210 210 0 0 1-105 93q-57 22-118 10a209 209 0 0 1-72-29 198 198 0 0 1-60-59l-14-23-7 1c30 70 119 136 227 120M606 373a216 216 0 0 0-77 127q9 3 9-5a208 208 0 0 1 118-144 206 206 0 0 1 96-17q44 2 84 22a202 202 0 0 1 87 86q4 9 12 5l-2-4a216 216 0 0 0-327-70m-11 274q6 3 10-2 2-4 1-8-2-6-9-6c-7 0-5 3-7 7q-1 5 5 9m302-45q3 7 10 5l6-7q1-8-8-9-9 0-9 11m-13-153q8-3 7-10-2-6-9-5a8 8 0 0 0-7 7q2 6 9 8m-313 28q-3 10 5 12 6 2 8-4 3-6-2-9-5-5-11 1m643-148q33 2 64 12 38 12 60 45a96 96 0 0 1 13 51 78 78 0 0 1-37 68l-33 20-4 3 4 3a170 170 0 0 1 52 29 80 80 0 0 1 27 53q3 25-3 49-11 38-46 56a194 194 0 0 1-65 20q-41 5-82 4h-35v-84h56a44 44 0 0 0 42-30c8-24-6-45-29-51l-19-2h-50v-86h58a38 38 0 0 0 37-27c6-23-6-42-28-49l-19-2h-48v-85zM488 600q1 27-2 54-2 31-22 57a90 90 0 0 1-40 27 191 191 0 0 1-60 10q-38 1-77-6-22-2-19-25l5-61q1-14 11-15l10 1 30 3q31-3 36-35l1-21V339q1-12 13-12h104q10 0 10 9v7zm622 38v105h-102q-17 1-16-16V345q0-7 3-13 4-5 9-5h106z"></path>
  <!-- Blue Stars --> <path fill="#517fe6" d="M811 636q-1-9-9-6h-2l-1-1q8-4 4-13l7 3 7-6q-4 10 6 14h-5q-5 0-5 6zm-108 6c-6 1-2 6-5 8q-5-5-12-6l2-3 3-3-3-8 9 4 4-6 2 1q-5 9 5 13zm45-3-1-4q7 8 14 0c0 7 0 7 6 13q-10 0-10 8-3-8-12-5c2-4 6-7 3-12m-69-172h-1q-7-6-12 2 3-9-7-13 11 1 10-10l1 1 3 7 9-1 1 1q-9 4-4 13m101-17c2-6-4-5-6-9q9 1 9-9c3 5 6 10 13 6q-9 6-2 15l-9-4-6 6zm-57-20 2-4q2 10 11 7-7 6-1 14-8-7-14 1c-1-6-1-6-6-13q6 1 8-5"></path>
  <!-- Orange SIGN --> <path fill="#fc8e41" d="m949 484 10 76-22 3-5-3-43-49-2-2 8 60-24 3-14-99 22-3 4 3 40 45 6 5-7-58 22-3 2 3zM774 586q-25 4-43-12a52 52 0 0 1-15-53q8-29 39-35 26-5 44 12l10 14-26 3-3-2q-12-9-25-3a22 22 0 0 0-16 19l1 15a25 25 0 0 0 25 21q21 0 27-19v-2l-15 2-15 2-2-18 51-7c4 16 6 31-6 45a52 52 0 0 1-31 18m-258 10-1-6 23-3 4 3c3 9 16 8 21 2a8 8 0 0 0-3-13l-14-4q-13-2-24-7c-16-9-17-32-3-44s40-13 54-2q8 6 9 17l-25 4q-6-11-14-9-7 1-8 8t6 10l22 5 10 3c21 8 21 33 8 45a48 48 0 0 1-52 6 29 29 0 0 1-13-15m142-82 12 85-24 3-13-98 24-4z"></path>
  <path fill="#d13c2f" d="M1022 921c-6 4-13 2-19 2l-27-1-21 1h-92l-31-1-6-2-4 2h-1l-2 1h-5l-11-1h-2l-2-2 1-1-1 1h-2q-7-2-10 3l-11-2-4-2 1 2h-4l-7-4h3c2 0 2-4 0-4l-6 4-3-3v6l-6 2 2-5q-7 3-13-2l2 4-5-1-4-7-8 2q0 6-6 5l-3 3-10 2-7-3-5 1-3 2h-9l-2-1h-1l2-2-1-1-5 3h-4q-3-5-5 0h-2l-2 1h-4l-4-1c-4-5 3-6 4-8h-5l-2 2q3 5-3 6h-10l-3-5 4-1-5-4q5-6 0-10l-1-3 5-1 3-2-3 6 1 1 7-7-2-3h-2v-3h1l1 1 4-4 4 2 1 2 2 1 1-1v-1l2-8 5-2q1-1 2 1v1l-1 1-3 5 2 1 1-4 3-1h2q6 1 6 4l3 6 3 2 2 11 2-1 3 1-2-2 2-2q-6-2-4-7l1-1h-1l-2-3 4-3-1-1-4 2-4-6h4l2 3 1-2-3-1 11-3 7 1q4 2 7-4h8l1 5 6-5h1v2h-1v1l1-1 2-2 4 2q-8 5-5 9l9-1q2-1 1-3l-2-4h16l9-2h13l6 1h10l-6 4-3-1v2l3-1h11l-1-3 8 1 1-3h18l17-1 30 1h12l18-1h1l25 1 25-1 10 1c7 1 15-2 22 1l2-1h11l25-1 10 2 11-1 24-1q9 2 18 0l6 1v1-1l10-1 33 1 16-1 37 1h47l2 3-1 4v1-1l5 1-2 3 1 1 5-4-1-1-3 1 3-8 6 1 3 2 5-2h1l-1 2 7 2 1-1-3-3 3 1 2-1h1l3 3v-4l1 1q7 5 10-1h5l3 4 7 1 3-5 3 1v2c2 1 9-1 12-3l31-1-3 4c-3-5-6-1-9 0v1-1l10 7q7-6 22-10l-3 4 5 1q5 0 3 5h-1l-5-4v1l-4 1-2-2-4 1 1 2 4-1h1v3l3 1-6 5-3 4 5 3q3-4 4 1l2 2 2-3v-3l4 2 3 3 2 2c1 2 4 7 6 7l7-1-1-8 1-2h2l2 3 2 5-1 5-5 1-10-1v1l3 3-6 1-1-3-2 3-2 1h-28l-8 1-11-1-1-2v2h-2v-1 1h-1l-6 1-14-1q4-4-1-7l-3-5v9c-3-8-9-4-13-6q-3 5-7 6l-8-5-2 8h-15l-3-2-2-1-5 2h-3l-2-1-3-1h-2v-6h-2l-2 8h-2l-1-4-9 5h-13l-2-3-1 1 1 2h-2l-3-3q-3-4-7-4c-2 1-4-3-6 0l3 5 1 2h-12l-3 1-3-1-2 2-15-1h-6c-1-6-2 0-3-1h-1l-1-2-1 1-11 2c-2-5-3-1-5-1h-5c-2-2-4-5-7-1l-2-3 1-5-1-1-3 2 3 4-4 3h-2v-2l-1 3-3 1-2-4-1 1-1 3-8-1-1-3h-1v3l-4-1-2-1-1-1 1 1v2l-7-2-1-5-6 2h-2l-4 5h-2l-1-6h-5q0 6-4 6h-15zm317-17-1 1zm6-2v1l1 2h3v-1zm-703 2 2-1-1-1-3 2-1 1 1 1zm613-15v-1h-1zl2 4h1l1-1zm-559 13-1-1-1 1 2 2 3 5q1-6-3-7m593-1 1 1v-1l-1-2-7 1v3zm-128 14h1l-1-2 2-5-5 2zm109-27v-2h-1zl5 3 5 4 3-4-5-4-3 2-1-4zm-178 20c5 2 4-3 6-4l-10-2-1 3zm-436-5-2-3-1 5-1 3-1 1 1 1 2-2 6-1q3 0 3-3l1-3h-1l-1 3q-1-6-7-1m418-1q-3-1-4 3l2 4h4c4-4-1-4-2-7m273-8h2l-5-7-4 7zm-652-3q5 2 8-4-8-5-8 4m64-4-1 7h2l7-8c-2-1-4-4-5 1zm-12 1 5 5 2-3-1-4-5-1zm-101 24 4-10-8 10 5 3v-1zm81-14q-4 4 2 10zh3v-1zm317-14q-6 2-4 9l7-8zm-55 17-5 1 1 3 5-1zm-10-2v5l2 1 1-5zm371 8-1 5h2l4-5-1-1zm-186 12 3 2 1-4zm61-25h-4q5 4 7-1l-2-2zm47 11v-3l-2 1v3zm-11-3 2-5-2-1zm103 9v3h1l1-5h-1zm-98-6v-4h-1zm-366 5 3-2-1-1zm169 6h3l-1-1-4 1zm-373-8-2 1 2 1zm576 7-2-1v2zm-584-23-2 2 1 1zm389 23 1-2h-2zm-105-13h2v-1zm327 15 2-2h-1zm-67-24-1 1 1 1zm-121 23 1 2 1-1zm166-10-1-1h-1zm-41-11v-1l-2 1zm86 4 1 1 1-1zm-653 0-1-1-1 1zm29-1-1 1zm198 10h2v-1zm164 5-1 1 1 1zm-376-2v-2zm647-6-1 1 1 1zm-642-16v-1zm-31 5v2h1zm37 0-1-1-1 1zm346 0h2zm244-6h-2zm-18 1 1-1-1-1zm-291 5h-1zm120 8 1-1h-1zm288 7v-1h-1zm-32-26-1 1h1zm-238 37q1 0 0 0m3-3s-1 0 0 0m-33 4s-1 0 0 0m243-32h1m-99 0v1M138 600l1-7c3-6-5-10-3-17v-18l1-20v-7q-4-9 2-15l1-2c-4-4-6-22-2-27l2 3 1 3 2-2q-1-4 3-4l1 2 3-4 5 5 4-7v1l6-3 6-1v-6l-7 1-8-1 4 4h-5l1-1q-8-4-5-12h4q3-2 1-4h6q-6-6-7-1l-2 1h-1l-4-1h-1l1-4v-1q2-4 1-7l-4-2 2-8-10 2q-4-6 3-8l2-4h3l6-4-13-8v-2l1-1h-1c-4-6-1-13 0-19q5 1 7-6c6-1-1-4 3-6l-5-1-5-1 2-13h1v-2l3 1v-8l6 1v-13l-2-12-1-2 4-3c-2-1 1-7-4-4v7l-2-2-2-4-3 2-2 2a27 27 0 0 1-1-19l1-6a14 14 0 0 0 0-13l-1-8-1-16 3-6q-5-1-3-8l1-4q1-17 7-35l8-15 7 1-3 4-3-3q0 9 9 7l-1-6 4 1 6-1v2l5-4q11-1 17 8l-4 3 4 1-7 16-6 21v23l1 9-1 22 1 16v8l-1 2v20l-1 8h1v3l-3-2-2 9 6-2v22l-3 8 3 3v7l-1 10 1 13v8c-4 6 1 12-1 19l-1 11v7h-6v1l3 1 3 4h1v9l-1 4h-2c0-7-6-4-9-5q6 1 6 7l-8 5q-1 8 6 5v7l8 1v17c-9 0-2 6-4 9-4 1-9 0-10 6l-1 1h1l5 6c3 0 1-10 7-3l2-3v27l1 8v12l-1 19-1 10 2 12v6l-1 13v2l1 9-1 14v35l1 8-1 29-1 12q2 8 0 14v5l2 16-5 4 4 3c-6 0-5 3-5 5l-8 5 4 2q-3 3-3 5 0 4-3 3h-11l-4 1-1-6-3 2-4 4a122 122 0 0 1-6-46v-28q2-11 1-23l1-32v-5h2l3 9 1-3h6l-3-7v-1l6-1-3-4q-2-1-4 2l-3 2 2-9h-7l-1-4q6 0 5-6l-4 4-1-9 1-30-1-12h5v-5l10 3-6-6 2-2q-11-4-4-12zm24 175h3l-1-1h-3v-4l-4 2-1 3 3 1-3 1-4 2 8 2v-6h1zm-2-117-4-1v1l5 4v-5zm-7 4v-4l-5 2 5 4v5h2l1-8q-2 2-3 1m-6 142h-1zq4 3 10-2zm10-75-5-9-3 7-1 1 1 1 2-2 1 4-1 2q0 3 2 3l-3 4c3 1 2 10 8 4h-1l-3-1 1-1h6l-5-7-2-4zm2 64-6-4-4 5v1l1-1 4 4 6-5zm6-242-1-2-3-2-1 1 3 2-4 2 3 6 7-1-3-6v-1zm-12 196q3 4-1 7l-2 6 2 8 2 4 2-9q2-3 8-2c-4-3-1-4 1-7l-8 2c1-4 3-7-3-9m-9-190 3 2-2 1q7 4 11-3l-5-2-5-7v2l-5 3-1 4zm16-30-4 1c6 1 2 5 2 6l11 3q3-7-4-5l-3-2zm6 89-2 1 3 10 4-6zm-20-312 3-8-7 5zm7 152 1-1v-8q-6 3-1 9m-14-175 3 5 4-4zm6 387 4-2-1-2-4 1zm3 34 4 1 1-4zm9-58 2-2h-5v2zm-7 9-4 3h4zm-2-287 1-4c-3 1-6 2-1 4m15 158h-5q5 5 5 0m12 132 2-2-1-1-4 3zm-17-146-2 1 4 2 1-1zm1 31-3-2-1 2zm3 24q-4-1-1 4zm-16 107-3 3 1 1zm12-206 3-1-1-2zm-6 179q0-1 0 0l-2 2 1 1zm12-133v-2h-2zm-13-14 1 1 1-1zm9 116h3v-1zm-8-84-1-1-1 1zm1 123v2zm8-144h-2v1zm-16 57 1-1-1-1zm10 45v2zm4 10v-2zm-2 3v-2zm-13-79-1-1-1 1zm6-73h2zm9 0v1zm-10-150v2h1zm-6 400 1 1 1-1zm2 37h-1zm15-22-1 1zm-22-70h1v-1zm18-164s1 0 0 0m-8 188s1 0 0 0m-4-84s0 1 0 0m8 2s0 1 0 0m9 53"></path>
  <path fill="#d13c2f" d="m149 819 1 6 4-1 2 8h2l-1-8h8q3 1 3-3 0-2 3-5l-4-2 9-5q-3-4 4-5l-4-3 5-3q0 12 5 22h-2q0-5-5-6l-1 5q2 7-6 7l2 10-4 1 1 2 7-3 1 2v-1l-1-1 2-10 3-2v15l3 1 4-5v-1 1q-6-4-3-13l3 5 2 3 5 11 15 16v4l4-2 1 4-6 4 9 1 5 7q6-2 2-8l1-1 4 1 3 4-2 4-4 2 4-2c2 2 14 4 17 2h1l9 1h63l8 3 4-1c4 2 7-1 9-1h27l-3 2q6 3 11-2l23-1 39 1 31-1h30c5 1 12-3 16 4h4q1-6 6-4l3 1h35v2h-1v1l1-1 2-2h6l-1 3 1 2 10-5 2 1 1 2-4 2 7-1-2 6 5-1 5-6-2-3 5 1c1-1 4 5 4-1l1 1 2 3 1-4 2 1c2 2 7 0 7 5l-6 2-2 4-1-1 1-4-1-1-4 10 5-2 1 12 2-3 6 2 1 1 2 2 1-3 2-1 3 1-4 9h3l-2 7v2l-4 1h-3l-1-3-2 3h-4l-9-7v4l-2 1-2-1-2-2-1 3-6 1-10-1h-11l-10 1q-1-2-3-2h-4q-2-2-4 1h-2l-4 1h-7l-11-3q-5 0-7-3-3-4-7-3-7 2-10 8l-3 1h-11l-2 1h-7l-18-1v-4l-1 1-1 3-18 1h-3l-5-1-4-4-9 2v1l-3 1-6 1-3-1h-6l2-4-5 1q0-6 5-4 5 3 8-1 3-3 0-4-6-3-12-1l-1-2h-2l-2 10h-1l-2 4-2-2-2 3-1-4-1 4-6-1-5-4 3-3-17-2-5-11-5 5-1-5-1 3h-4l-7-4 1 6-4-2-1 1 3 4 4 4v5h-5l-2-2v-4l-1 1 1 3q-4 1-4 5l-1 1h-3l-1-13v-2l1-2h3v-2h-14c6 5 3 10 5 15h-2q-5-3-5-7l-4-4-2 7q-5 3-3 8l-16-1-5-3v-2l-6 2-4-4h-1v8l-8-5 1 4-5-1-7 1-4-1-5-2-20-7c0-4-6-6-4-11l2-1q-4-4-9-1l-4 2-4-4q3-4 0-6l4-1q0 5 5 3l-2-5 1-3 3 1v-2l-6-3-9 4-1 1v1c-3 5 4 1 3 4l-5 3-1-3-2 2v-6l4-6 6-3-3-6 10-6-1-1-8 1-1 6-6-1 4 5h-1v5l-3 2-4-8h-1l-1 6h-3l-3-10-2 1-2-1-2-2-1-3v-1l1-5 5 5q1-5-4-10l-1 5-4 1-6-1 1-4-5 2v-12h-4q-1 4-6 3l-1-2 2-4q-3-2-1-5l-2-2-4-1-3-9 4-4zm145 100v-1h-1l-1 1zm-138-81v-1l-1-2 2-3-4 2zm38 19h-2zl2 2 1-2zm-9 4c0-2 3-6-2-7l-2-1-1 1 3 2c1 2-4 6 2 6m365 33-7 5q-2 0-3-2l-1-1h-1l1 3v5l11 2q12 0 12-5-6 4-10-3l-1-4zm-335-21-3-1-6 2-1 5h6l8-5zm-48-32q-2 3-1 6 3 5 9 3l7-6-1-2-7 2q-5 2-7-3m-6-15 1 6-3 2h10v-2zm216 71-1 8h2l1-4 5-2v-1l-5 1zm39 13-1 6 2 1 4-5zm109 5h-6v1h10v-1zm-333-54-2-6h-1l-3 6zm183 33 5-7q-7 1-5 7m154 15-3-5q-2 7 3 5m-380-76 4-5q-6 1-4 5m226 69-4-4-1 1 4 7zm-11 0 1-4h-2zm18 3v4h2zm-178-45v-3l-2 2zm-10-10-1 2 1 1zm-22 3-2-1v2zm209 28v2l1-1zm-19 7h2l-1-1zm-181-22 2 1v-2zm436 46h-1zm-7-4h2l-1-1zm-428-61-1 1h2zm8 4-1-1-1 1zm5 11 1 1 1-1zm170 41h1zm239 13v-1h-1zm-84-6v1zm-90 7-1-1-1 1zm2 0v1zm-260-96-1 1 1 1zm3-4-1-1-1 1zm192 75-1-1-1 1zm62 28s0-1 0 0m87-7s0-1 0 0m45-29s0-1 0 0m-192 22s0-1 0 0m895-784h6l1 2 1-2 2 1q5 4 9 0l2 1 3 2-2 1h-5l1 1h4v-1l2-1 4-2q2 6 6 4l7-4 6 2-3 4c5 0 9 2 13-2h2c5 4 5 4 10-1l-2-2 9-1-1 3 1 1 3-2 1 3 2-6 3 1-2 10 5 1-2 4 1 2q6-8 14-9l9-2v7q-3 2 1 3l-1-3q6 2 8-4l2 1 1 7-1 9h1l4-7q8-2 9-8l-4-3 7 2 10 5q0 10 7 12l5-1-2 10 1 6-4 2-1 1 2-1 4 5 3 2 1-9h-2v-4l1-1 8-1h2l7 5 3 9-1 2-4-2-2 5-1 9-1 3-2-4q-3 6 1 10v1l-2 1v1l-5-3-1-3-8 2-1-7c6 2 3-3 4-4l-5-7-5 2-3-4-5 6-4 4h-1l-5-5v-3h-4l-2-1-1-1 1-6h3v-6q4 4 8 1l-2-4 4-2-3-5-3 6-4 3q-2-3-6-3v7h2l1-3 1 1-1 5-7-3v7l-5-2 2-6-8-3q4-4 1-7-2 8-9 13h-1l-3-1-5-1-5-1-1-1c-2 0-4-4-6 0h-8l-4-1-9 1-84-1h-175l-54 1-23-1h-37q-3-4-5 1l-5-1-2-6q-1-2 1-4 2-4 4 0l-3 2 1 1 2-3 6-2 1 1-3 2q5 4 10 0 4-2 0-4h-2v-2h8l1-1 1-5-1-4 4-5v-2l-10 3v2l5 2-11 1v-2l1-3 1-4-3 1h-2v-2h-1v2h-2l-1-1v-4l1-3 4 1q4 3 8-2v-2h8l3 1 2 1-3 2 5 1-1 5 1 1c3-7 6-4 8-2l7-5v5c3 0 4-7 8-2q3 4 8 6l13-8-3-1v-2h7q-1 5 4 5t4-5h6c2 3-1 8 5 7l-1 4-2 2-3-1c1 2-3 4 1 6v2l-3-3v-8h-1l-2 4-8-6q-1 8 4 11l-2 2-2 1 2 1 1 2-2 5 12 1v-6l1-2 2-1v2l2 1h2l-1 5 7-2 3 5q3-4-3-11 0-4 3-3l3 2h4v2l5 4 4-5v-5l3-1-3-2v-1l-1-4 6-6 5 1h1v-1h4l3 1v2l1 3 5-1-2-6v-2l1 1c4 1 7 4 10 0h2l4 7 1-2 6-1q6 2 8 0 4-3 7-1l4-2 5-2h2c-2 3-1 7-5 8l-1 2 4 10 4-4 9-2q3 4 6-2h1l2 4-1 4h6v-5h8l-11-6v-3l6-3q4 3 8-1 8-3 15-2l42-1 11 2h10l9 8zm-21 36 2 2 1-2zm-108-8-3-3-1 2 4 3q6 2 5-4zm-120-15 2-2-1-1-6 1 1 1 3 1zm393 11 2 1v-1zv-2l-2-3-3 1v4l2 5zm-283-11-3-2-1 1 4 3-2 3 4 3-1-2 5-3-3-5zm-7-3q-7-7-12 5l4-3 2 5-1-2zm314 60c-3-4 0-8-2-13l-6 7 5 4-3 2v1zm-360-59q-4 2-2 5l3 2 1-1zm231 2c5 2 2-2 3-4l-5 1zm-62 13-4 1q4-1 4 4l5-1-3 2zm130-12-5-2-1 1 2 4zm-198 1 4-1v-1l-5-1zm34 8-3-4-4 4zm31-6 4 4 1-2zm161 31-2-2v4l2 1zm-429-26-3 4 1 1zm423 4q-3 0 0 6zm-435-22 2 3v-4zm73 4 2 1v-3h-1zm-49 10-2 2 2 1zm441 39 1-2h-1zm-213-39v3l2-1zm-243 0 1-2h-2zm414 22h-1l2 2zm-369-20 2-2-1-1zm-5-3v-2l-2 1zm-36-7v3l2-1zm439 31v3l2-1zm-407-26-2 1 1 1zm-46-7v-2l-1 1zm405 4v2l2-1zm55 30-2-1v1zm-181-24 1 2 1-1zm157 33h2l-1-1zm23 4v-1zm-366-20 2 1h1zm20-27h2l-1-1zm-53 19h1zm375 4-1 1 1 1zm-377-14-1 1 1 1zm365 31h-2zm-396-42h-1v1zm398 24q0-1 0 0m-251-11s1-1 0 0m256 8s1 0 0 0m-405-2s1 0 0 0m31-9s1 0 0 0m63-11s1 0 0 0m-101 8s1 0 0 0m-17 18s1-1 0 0"></path>
  <path fill="#d13c2f" d="m951 136-1 3c-2 6-8 2-11 5l-1-5-5 6-1-1 2-7-9 2-2-4-1 1v4l1 6-4 1h2l-4 9-6 8 2 1h-11l5-6 2 2 1-1-3-1 3-7c-7-4-3 6-7 6h-3l-5-1v-4l-7 8 1 1 4-3 1 1-2 6-9-1-3 1h-3l-4-3q4-6-4-10l-4 13-31 1h-7l-14-4-4 4-22-1-25-1h-20v-4l2-1 3-7v2h1l-1-2 1-3 3 7 1-7v-2l6-1v-1l-9-1-4 6-8-7-2 14 3 4-3 2-1 2-3-1h-10l-15 1-35-1-24-1-5-3v1l4 2h-7l-2-4h-1l-2 5h-76l-7 1c-4-2-8 2-11-3-4 5-10 2-15 3l1-4v-1 1q-4 4-9 4h-24l-12-1-37 1-10-2-11 1-4-3v3h-9l2-1-1-1-3 2h-8l-8-3-7-1v-2h2l-3-5h8v-13l3 2 2-7 4 1 6 3-1-4 21-7 6-6 5 7 7 2-1-5v-1h3l6 1v-3h2l3 1 3 1q5-1 7 4-2 10 7 13l6-7 2 2q5-4-2-6l2-3c8 1 16-2 24 3l3-2q7-7 16-3l2 1q-1 6 5 7l6-10 3 4 3 1 2-3c1 1 7 1 2 4l3 5 3-3 2 3q10-1 6-10l5 4 1-6 1 1 3 2 1 2-3 2h11l4 1v2l7 7q3-2 3-6l5-2-1-1-4 3-6 2-3-3-1-2-3-4-1-5h2l3 4 1 3 10-2v-3q9 3 11 11l1-2q-2-5 3-8v-2h2l1 3 7 3-2 5q3 5 11 2l3-3q6 0 4 5l6-2-1 7 1 1 5-7h4l-1-1 2-3h3l1 5-6 3 7 4q1-11 4-8l-1-6 3-4c4 6 9 1 13 1l3 4-5 6 6-1 10 5c-1-7 5-3 7-5l-2-7q-1-3 2-4l6-1-1 6-3 3c6-1 10 7 16 2l-2-1 6-7 8 2 1-2 5 2h3v-4c4 1 9-4 12 1l7-3 9 3q10 5 13-5h2l3 3q7 0 7 6l3-3q1-6 7-5l6 2 1-3h1l4 6v1l1 1h1v2l1 2h3l6 5 1-3q7 11 13 2l1 4q3-2 5-1c4 4 7 0 11-1l5 6v2h-2l-9 5 1 1h4v1l-5 2q6 2 7-2l3-1 1 2 1-2 2-2 8-3c4 7 4 7 11 2l2-1v-2l-6 2-2-4v-7l4 2q-1-5 5-4l-2-3 1-6 3-2 3 5 2-4h2l5 2-3 3-3 2c3 5 8 1 12 2l3 2 6-1-1-2 6-2-1-3h5l4-1v-2l5-1 4-1 2 1 2 1-3 2q-5-2-7 0l7 4v-3l4 1 1 1h1v2l-1 2-1 3 3-3zm-345 2-2-3-1 2zm11-2 2-5-1-1q-1 6-7 4zm13 12c-4 4 2 6 1 11l4-6c-1-2-6-1-4-5l4 2-3-7zm15 7v-2l4-3 2 6v4l1 2 1-2 5-3-4-5-4-4-7 2v-7l-5 11 1 1 1-3zm72-4c1 2 1 6 4 4h6l4 1 1-2-8-5zm-103 4c4 1 3-3 5-5l3 6 2-7q-8-7-10 6m-211-7-2 1-2 6 2 2 2-6 1-1q5 2 3-4zm104 5-6-4q-3-1-8 2l14 5zm282-16 5 1v-2l-9-4-3 6zm-292 1 2-5-1-1-7 4v5zm9 4q5 0 4-4l-2-3-3 5zm-112 18 3-1-2-8h-1zm41-6-7 1 5 3zm317 3-5 1v1h10v-2zm6-16-1-2h-1l1 5 6-1v-1zm-128 3-5-3-2 2zm149-6v-3l-5 3v1zm124 14-5 1 1 2zm-448-23 4 2q-2-5-4-2m166 34 2-3-2-1zm-182-26 1-3h-2zm331 7 2-3-2-1zm121 11 2-3-2-1zm-225-12 1-2h-2zm-41 10 2 1v-1zm150-11h-2l1 2zm-16 17 1 1 1-1zm-157-27 2-2zm311 23-2 1 1 1zm-470-19h-1v1zm207 7h1zm-30 1h-1v1zm5 3s-1 0 0 0m154-18s0-1 0 0m-165 12s-1 0 0 0m748 748q2-4-3-5l-5-1 3-4a53 53 0 0 0-22 10l-10-7c3-1 6-5 9 0l3-4 17-1q18-1 33-9l5-3 7-5a102 102 0 0 0 24-27q7-10 8-22l3-21 3 5 4-1 1 1-2 7q9-3 3-11l-2-13q-8 0-5-8l6-1 7-1c2 2-9 3-1 7v-2l9-6 1-3h2l2 4v1h-3l1 4h-2v1h-1l1 1 2 2q-4 2-3 6-3 4 2 3l-2-3 6 2 4 4 2-1-3-5 4-5 2 13a30 30 0 0 1 3 16 37 37 0 0 1-5 20l-3 14-6 1 2 6-1 1v1h-2l-6 7 3 2a140 140 0 0 1-37 40l-13 7v-1l-1 1-2 1q-6-2 1-8l-10-1v-1l2-1 4-1-3-3 3 3 2-7-1 1h-6l1-5q-8 6-14 0l-2 3h-11v-2l10-3q-7 0-5-7c-5 4-6 4-7 9q-1 6-6 5m84-104 2-2 1-4-1-1-3 2-1 1 2 1-1 1v3zm0 79-2-2-1 1zm4-72 1-4h-2v5zm1 62q6-1 2-10c-3 0 3 7-5 6zm21-44 1 3h1l-1-6h-1zm-52 35 4-3-1-1zm4 1-2 1 1 1 5-1-1-1zm5-10q4-2-2-4zm29-47h-2v2zm12 23 2 3 1-1zm-87 68v-2zm39-42h2zm5 1h2zm-1 3h2zm-35 40 2-1zm44-48h2zm1-636q-4-4-1-10l2 4 1-3 7-3 4 1q-3 6-1 11l2 3 1-5q2-6 8-6l5 9 6 16 4 9v6h-1l1 12h2v5l-1 2v5l-5 13v3l-5 1v-1l3-3-5-1-1 7q5 2 8-3l1 5v1l-2 5-2-5-2 1 4 5v3l-4 3 4 2-1 4 1 3 1 1h-1l-3 4-3 3v3l-5 9 1 1 2-4 1 2 7-2v2l2 4q-7 4-7 11l-9-1-2-3h9l1-1-9-3v1l-2-3q-1 6-7 4v5l2 3 2-2h4l-1 5 5 3-2 2h-1l-5-2-1 1c2 2 7 2 6 6l-3 5h-1l-1-5q-6 0-4 5h-1l-3-2-2 6-1 1c-3-1 0-6-5-5v-34l1-6q2-5-1-11l1-22v-2l-1-23q0-25-12-45l-3-5c-6-2-7-8-11-11 3-3 8-5 7-11l4-2 5 7c-1 1 2 6-4 4l1 7 8-2 1 3 5 3 3 6 2 3v-9zm24 110 2-2-2-1-2 3 1 1zm-8-5-7-2-1 5q10-1 10 8l1-1-1-8 3 1c-3-3 3-2 4-5zm-8-49-4-3v4l4 1zm24-10 5 1-3-4-1-3-1 1zm-12 23 3 4q2-6-4-6zm0 2-1 1 1 1zm-16 77h2l-1-1zm24-55-1-1zm-15 45-1 1 1 1zm17-17-1-1-1 1zm-14-3-1 2h1zm15-71v2zm6 5v1zm-19 67q1 0 0 0m24 250-1 9v6l-4 7 1 6 1 2v2h1v-2h1l1 3-1 3v2l-1 3-2 1c3 4-1 8 2 12l-1 13-3 1-1 1v2h-3l3-14c-2-2-7-1-6-6l2-2-2-1-4-4-1 4h-1v1l1-1 2 3q-4 1-3 3l-3 5 1-7-10-1-1-5-1 1-1 8 7-1-11 10-3 13-1 1h-3v-12h1l-1-1 1-9 1-4-2-21c0-4 3-8-1-11v-2l1-19 6 3q2-3-1-7l-1-1q2-5-4-4l3-14-3-2 1-12h1v-1h-2v-9l3-1 3 4 1-1-1-3v-2l5-4 5 4-3 3 11-2q2 8 11-3l5 4-2 3 3 1 1 3v2l1 1 1 2v2l1 2-1 3v19zm-30 39 1-1 2-2-8-7-1 1q1 6 5 8l-1 1zm1-52-4 1 1 1 5-2 3-2-1-1zm7-10h-1l-1 4q3 3 2 6h-1 3q4-1 2-5l-1-5 1-5 4-2v-1l-2-3q-1-7-8-9l1 4-7-1 4 9h2v-4h1v5l-2 3zm-11 48 6-2-1-2zm5 22s-1 0 0 0M193 213h-4l4-4q-5-9-17-8-4-3-7 0v-5c4-2 0-4-1-6l-1-5 1-3 4-5-1-8 1-1 3-3 9-8 2-2 2-1 2 1 1-4 2-1 5-1q2-4 7-5c3-2 9-1 7-8h3l3 1 1-1c7 0-2 3 2 6l14-9 8 1 7-5v6l1-1 3 4-2 1 1 1 1-2 2-4 1 6q8 0 6-7 8 1 10-5 6 6-2 8h-7l-1 2 7 3 1-1-3-3 3-1 3 1v5l-5 6 4 3-3 8q8-4 12 1l-2-12 2 1 5 12q3 3 1 5h-20c-2 0-7-2-7 4l-4-1 1-3-5 1 2 2-10 1-6 3-2 1h-2l-5-4-5 6-5-7-1 6h-3l-2 1-1 2h-1q-7-7-12 1l-1 1v1l1-2q2 3 6 2l4 1q-9 3-8 13l-2-4-6 9-2-6-3 6 7 3 5-2zm-8-31-2 1 3 2 4 3 1 5 4-4 1 3h1l2-7h-1q-1 2-3 2l-7-8-2 3zm49-16-4-3-1 1 1 6zm15-23 1-3h-1zm7 1h1"></path>
  <path fill="#d13c2f" d="m1468 638 1 4h2l-1-4v-2l1-1 3-1 2 1-1 3q-6 3 0 8l-1 1-3 1 2 1v2q-5 0-3 6l3-5h3v12l-8-1v8l-3 9-2 1 1 8 3-3 2 1-1 14c-3-3 1-8-4-7-3 5 3 10-1 16l5 1a12 12 0 0 1 0-10l2 5 2-2 5 1v8l-1 14v13l1 9c-5-1-7 3-10 4v2l-2 9-4 2-2-2v-1l-1 1h-1l-4-2-5-1-2-2 4-1c6 2 3-4 5-6l5 3 1-2-6-4-8-13-3 6h-3v-5l-1 1h-1c0-3-4-6 1-8v-5l4-1v-3l-2-4 4-3-2 4q5 2 2 7h2l3-5 2 2 1-1-8-7-14-7v-32q9-6 1-13v-3l3-1-3-2 1-1h3l2 1 2 2 1 1-1-1-1-5 3 1-2-2v-2l3-1q6 1 5-3l1-2c2-6-3-4-5-6l3-2 4-5h4l-4 4 3 5 4-9h-3l7-4q-3 6 3 7l-4 3zm-7 1 1-3-2-1v4l-1 1v1zm-11 58h3l-5-8h-1zm-8 37 3 1v-1zm14-90-1 3 2-1zm-10 87 1 1 1-1zm-6-55h2v-1zm14-28h-2zm-11 81h2zm26-83v1zm-7 117s-1 0 0 0M287 161l-4-12 1-1 5-4h-8v-1 3l-1 2 2 12q-4-5-12-1l3-8-4-3 5-7 6-7 3-4 1 2 1 1v4l5-2 2-4c4 4 6-1 8-1l7 2-1-7 11 1v8l4 4 2 1 6 3-2-5-2-1v-1l1-1h2l3 5h5l-1-3 3-4 4-4 1-1c6-1 0 3 2 4l-1 1 1-1h6v-6l3 1 3 1v2l-2 2 1 1 1-3 2-2 2-1h3l-2 5 7-5-1 4 1 4 6 4 2 6 4-2v3l-1 6-4 3-3-4-4-3-4-5-3 1 4 7-2 3-4 4q-1-5-3-7l-3 5-7-1 1-2 1-1h-1l6-6-5-8-1 2-8 11 1 3 5 3q6 5 8-1l1 5 5-2q7 5 13-1l3-1v4l5-2 4 3-2 4-33 1-6-2-1-1v1l1 1h-14q4-7-3-9l-8 1v-5l-3-2v1l2 1-2 3-2 1c-7-2-3 4-5 5l4 4-12 1c1-4-4-9 2-11-5-3-5-3-8 4l-1-4q-4 6 0 8l3 3h-6q0-5-4-5m26-19-2-5q-4 8 4 9zm43-6c-2-5-4 0-5 1zm6 4 3-5c-1 2-6 1-3 5m-32 7h-2l3 3zm-11-3 5 1v-1zm-11 7 1-1h-2zm51-7-1 1 2 1zm-55-1-1 1 1 1zm-3 4v-2zm68-5 1 1 1-1zm-92 1s-1 1 0 0m63 15s0-1 0 0m1104 193q1 9 8 4l1 3 13-3 4 1 4-1v6l3 5v3l-1 6v5c-2 3-6 5-4 9l-2 1-1-3-2 3q0 5-6 7c1-6-6-2-7-6v7c-3-2 0-7-5-6v6l-1 9-5 2v1l7 1-1-4 2-3 1 1h1l1 1 2 4 2 1v2l-1 1q-1 5 3 5l2 2q0 6-5 7l-1 2h-1l-2-2-1-5h5l-2-8c-2 6-5 3-7 2l-1 2 3 2 2 8v5l-1 2-2 2h-5l2 8 3-8 2-1 1 3-2 4h3l-4 3 3 2 2-4h4l6-4v7q0 4 4 6v6l-3-2-2 4h-7l1-6h5l-1-2-4 2-2-3-2 4h-1l-1-5-4 2-2-7c-2 2-5 8-8 1v-3l-4-1 7-5 2 6c1-3 4-6-2-7v-12l-1-1-4 4h-3l-1-1 2-23q4-3 0-5l4-1h6v-1l-6 1v-8l-1-2v-1l-1-3-1 1h-2v-3l4-2h-1v-8q4-4-1-4h-2v-8l1-5 2 4 2-4 1-1 6 1-4-4zm-4 31 1 2h1l1-3v-1l-2 1zm11 6 2-1v-7l-6 2-1 3 1 3 1 2v-1zm-13 21h-2l1 5 4-3zm8-32 3 2 1-1zm-2 50 4 1v-2zm-5-10 1 2h1zm2-27 2-1-1-1zm-3-12 2 2 1-1zm28 8-1 2h2zm-17 38v-2l-1 1zm-4-7 1 1 1-1zm18-26 1-1-1-1zm-7-6v1zm-16-19-1 2h1zm26-4h1zm-8 90v-2zm-4-41s0-1 0 0"></path>
  <path fill="#d13c2f" d="M1438 448c3 7 6 1 8 0l2 6 4-2 1 5h1l2-4 2 3-1 7h7l1-5 4 2 6-4v2h3l-1 4q-4 5-1 6v11h1v5h-3l-2 7h4l1 16-3 2v7q-6-1-3-6l-6-3-5-4 3-5h-3l-6-7v-1h-1l1 1q-5 6 1 6l3 1-4 8-3-1 1 1-5 3-6-4 1 4-6-1 1 7 3-3-1 4-1 1h1v1h-3l-3-4v-7l1-15v-18l-1-24zm8 56-1 2 3-1zm6-4-1 2 2 1zm-13 5-1-1-1 1zM885 135l2 3q-6-1-5 4l-4-2v7l-5 3-8 3-1-2v-1l-2-3-5-6-3-3 3-3-4-2 1-1v-1 1c-5 0 1-3-1-3v-3l3 2v-5l6 1q3 11 11 3l7 1h3l-3 3zm-24-4v-3l-2 1 2 4q1 5 5 2zm7 7-3 5h4l1-6zm585 296v-3l3-1h1l5 8 5-1-9-9q5-1 5-7l4-3q1 6 6 5l6 1-1 5v12l-3 1-4 1 2 2-4 6v2q-4-1-4-5v-7l-6 4-6-5q4-3 0-6M362 131l2-5 12-3h33l34 1 1 2v1l-6 3-5-7-6 6-21 7 1-8-6 1 1-3c-3 1-6-3-9 0l-2-1q-4-3-6 2l-2 5-1-1v-4c-5 0-10-2-14 3l1-4zm79-3 1-1-2-1zm1025 636 2-9v-2c3-1 5-6 10-3l-5 9q6 12 4 27l1 10-2 11-3-16-3-13-4 5 3 5-2 1-4-4-5-2h-1q-2-4 3-5l-1 4q9-2 8-12zM658 134h-5v-1l1-1 1-1-2-1 1-5a11 11 0 0 0 10 0q6-2 14-2h16l1 2 1-2h2q-1 4 2 4-3 0-2 4l2 7c-2 2-8-2-7 5l-10-5v-4l3 2 4 3 1-3-4-4-5 1-3-4c-4 0-9 5-13-1l-3 4zm36-7-4 1 1 2zm-11 5s1 0 0 0m133 0 6-2-5-3-3 3-4-6 14-2h2q6 4 13 3 2 0 7 5v1h-1l-2-2 2 2-8 6 3 1v2q-6 9-13-2l-1 3-6-5zm10 1-4-2-1 1zm2 2h1m-611 2-3-1 13-6h10l8-2 6-2q7 2 14-1l6 3q-1 6-9 5 2 7-6 7l-1-6-2 4-3-4-1 1v-6l-7 5-8-1v-1 1l-14 9c-4-3 5-6-2-6zm37-7 1-2h-1zm782 5 1-4a20 20 0 0 1 16-5l3-3 2 1 3 8v5l-5 1c3-5-3-3-3-7-2 6-2 6 3 10l-2 3h-4l-3-2q-3-1-3 3-1 5-6 3h-2l-2-1v-2l-2-2v-1l2-5zm11-7-1 1 1 1zm-9 11 1-1-1-1zm2-6-1 1 1 1zM346 904l1-3h1v5l4-5 5 11 17 2-2 3 5 4-3 1-9-1-19 1v-2c5 0 3-3 2-5l-3-3v-6zm666-781v3l3 1-13 8q-5-2-8-6c-4-5-5 2-8 2v-5l-7 5c-2-2-5-5-8 2l-1-1 1-5h-5l3-3c13 1 26-3 39-1zm-367 14-6 2q2-5-4-5l3-6-5-2q-3 4-1 8l-1 3c-3 2-9 1-10-2l2-5-7-3-1-3 21-1h12q-5 6-3 12zm493 2-4 4-4-10 1-2c4-1 3-5 5-8l25 1-3 4h-2l-3-1 1 2 2 4-2 2h-1c-2-2-14-2-15-1l-1 4zm19-14-3-1-1 1zM715 921l3-3q7 1 6-5l8-2 4 7 6 1-3-4q6 5 13 2l-1 5 5-2v-6l3 3 7-4c2 0 1 4-1 4l-3 1 7 3-4 2-19-1h3l-1-2-3 1h-1l-2-2v2q-7 5-8-1zm13-4 3-1-1-1zm-2 1h-1zm620-794-2 6-1-3-3 2-1-1 1-3-9 1 3 2c-6 5-5 5-11 0l-2 1c-4 4-8 2-13 2l3-4-6-2h-1 1l-7 4q-4 2-6-4l-4 2-3-2 9-2 15 1 7 2q9 1 17-2zm-48 1s-1 0 0 0m175 579-2 2-3-5a12 12 0 0 0 1 10l-5-1c4-6-2-11 1-16 5-1 1 4 4 7l1-14-2-1-3 3-1-8 2-1q7-4 3-9v-8l7 1 1 5-5-1q2 4 1 7-2 5 0 9v9q-2 4 0 8zM545 131l-3-2-3-4-6 10q-7-1-5-7 5 4 7-2 2-5 7-2l5 1q6-3 8 3l13-4v6l-5-4q4 9-6 10l-2-3-3 3-3-5c5-3-1-3-3-4zm15 2-1-1-1 1zm220-10q-3 10-13 5l-9-3-7 3c-3-5-8 0-12-1l-1-1-3-2-3 1v-3l18 1zm-15 2 1-1v-1zm698 183 1-3 2 2v-5l3-3h2l-1-1-1-1v-7h2c1 2-2 7 4 7 1 0 3 5 2 7q-2 6-1 12h-7v-2l-1-3q-5 3-5-3m9-7h-2zM147 460q1 8-5 9l-2 5v4l-3 1-1-17 1-7v-2l6-4 4 6v1l-5 4 1 1zm-2 2v2zm-4 0h-1v1z"></path>
  <path fill="#d13c2f" d="M1473 704v-3q-2-4 0-8v-9q-2-4 0-9 1-3-1-7l4 1 2 7 1 11v5q-2 6-1 13zM700 127q-3-1-2-4h22l1 1 9 5h1l-1 2-9-2q-7 4-16 2l1-5zm750 60-5-1-7 3 1-9 2-5 4 2 1-2-3-9q9 4 10 15zM499 922q4-7 10-9 4-1 7 3 3 3 7 3l11 3h-8q-4-2-9 1h-4c-4-3-9-1-14-2m11-7s-1 1 0 0m-127 8 1-4 1 4 2-3 2 3 2-4 1 2c-1-1 6-2 1-4l1-9h2l1 3q6-4 12 0 3 0 0 4t-8 1-5 4l5-1-2 4zm18-10q1 3 6 2zm82-783-2 3q7 2 2 6l-2-2-6 7q-9-3-7-13l3-2 3 5 3-1c-7-1-1-4-2-5 3-3 5 1 8 2m775 793 2-8 8 5q4-1 7-5c3 1 10-3 13 5v-9l3 5q5 3 0 7-4 1-8-2l-4-6q-7 4-5 9l-13-3zm-124-799-5 2-4 2q-3-2-7 1-3 2-8 0l-6 1-1 2-4-7 10-1zm-233 7-5-2-3-3v-2h26l3 2 2 1v3l1 2h-5l3-4h-6q-6-2-11 4zm564 201q-2-7 6-10l5-1 1 10c-6 2-4 6-3 9l-3-1-1 7-2-5v-5l3-1v-1zM202 890q3 2 0 6l4 4 2 1v2l-2 1-8-5-11-8-4-4h1l2-2 6 1v6l1 1h2l5-3zm-64-290h6q-7 8 4 12l-3 2 7 6-10-3v5h-5l2-9v-4l-2-7zm33-431 1 8-4 5-2 3-4 6 5 2v1l-5-1-5 1v-2l1-2-2-1 1-2 6-5 3-7h2l-1-1zm-23 286-3-6-6 4-2-13 10-2-2 8 4 2q1 3-1 7m197-324c-2-1 4-5-2-4l-1 1-4 4-3 4h-2v-4h1l-1-1-1-2 2-4h3q7-3 14 0v6zm-2-6s0-1 0 0m1126 326 5-6q3-1 1-3l3-1v17h-3v-2l-5 4-1-6zm-48-290 2-10v-4l8 3 3 9-7-2-1 5-1 1zM273 128l7-3h9l-2 7h-2l-1-2-3 4-6 3-3-1q9-2 2-8m27 794q-1-5 3-7l3-7 3 4q-1 3 6 6h3l-1 3h-7zm1073-784v-7l-9 2v-3l7-4 9 4 1 4q-1 6-8 4m-9-8v3q-8 1-14 9l-1-2 2-4-5-1 2-9c3 7 10 4 16 4M150 346v13l-6-1v7h-3l-1-9 5-6zm735-211-5-4 3-3h-3l-7-1 1-2 3-3 10 2 7 4-2 4-3-5-3 2zm592 274 1 2-3 2v2l-2-1q-5-7-4-16l-3 6c-2-2-6 1-6-4h1l9-5h4l-2 6 3 1-2 2q-2 6 4 5M138 331l2-3 3-2 2 4 2 2 1 2q-3 7-10 8h-1l-1-2z"></path>
  <path fill="#d13c2f" d="m1450 187 3-6 6 8q-6 1-8 7l-1 5-2-3q-2-5 1-11M138 479l3-1 3 3 2-4q8 0 3 5l-2-2-1 7q-4 1-3 4l-2 2-1-2-2-4zm18-290 2 1-1 2-2 2h7c2 2 7 1 3 5l-6 2-6-1q-3-6 3-11m653-66-1 3-6-2q-6-2-7 6l-3 2q-1-6-7-6l-3-3zM318 921l1-3h-2c-1-5 1-10-5-15h14v2h-3l-1 2-4 1 4 1 1 13zm-153-62 7 2 1 3c-3 1-6-3-8 2l3 4c3 3 5-1 7-2l2 2-2 4-6-1-8-9 2-3zm1006 63h6v-2l-3-5c2-3 4 1 6 0q4-1 7 4l-3 1 1 1 2-2 3 3-12 1zM306 125l1 7-7-1c-2-1-4 4-8 0l1-7zm-10 3-1 1zm-34 794-1-5 8 5v-8h1l4 4 6-2v2l5 3-6 1h-3zm1206-582 2 6 1-8 3 1 2 1 1 2q-7 0-4 7h-2q0-3-5 1l-3-4v-2l1-8zm-411-217-3 3a21 21 0 0 0-16 5c-6 1-3-4-5-7h3l2 3 1-1-1-2zM165 859l-2 1q-3 0-4-3 0-4-5-3l-3-6q5 1 7-3h3v12l5-2zm47-723c2 7-4 6-7 8q-5 1-7 5l-5 1 9-9zm1257 145 2-5h1l-1-1-1-5 1-3 5-3c-1 3-4 6 0 10q1 2-1 8l-6 3v-2h5zm4 134h2l3 1 1 8-6-1q-5 0-6-5l-2-3zM613 124v2q-5 3-3 8l-1 2q-2-8-11-11v-2zM138 416l13 8-6 4h-2zm7-28q-2 7-7 5-3-6 0-13l5 2-3 3zm34 483 2-1 5 15-3 2q-2 0-3-2l-2-8zm1207 45 1-5-2-6 6-4-1 5q2 1 2 3v5zm87-512 2-2-3-1 2-6 2-5 2 3v11l-1 4q-6 2-4-4M206 904l2-1h6l2-4 1 1c-2 5 4 6 4 10zm1268-388v-7l3-1a20 20 0 0 1-1 17l-2-3v-1 1l-3-1 2-3zm-210-393-5 9-9-8 6-1zm118 11-1-4 9 3-1 11-4-2-1-7zm95 501-2-1 1-13c-3-4 1-8-2-12l2-1h1l1 18zM137 343l1-1a12 12 0 0 0 10-8l2 12-4 3-2-8zm787-217-2-1v-2h11l11-1v3l-1 3h-1l-2-1-2-1-4 1-5 1zm499 21c-6-2-4 3-5 4q-7-2-6-12zm-368 770 2 1 6-3 1 5c-4 5-8 2-13 2zM475 127c1 1-5 4 2 5l-3 1-3-5-3 2q-2-5-7-4-1 1-3-1l1-1q9-2 16 3"></path>
  <path fill="#d13c2f" d="m1478 393-2-3-2 4-4 1 1-4v-1l2-1h1-1c-2-4 2-6 4-9l1 1zm-89-249 1-11h4l4 3q-1 6-9 8m-1068-6-4-4v-8l11-1v1q-9-2-7 7zm261-7h-2l-6-2-1-2-3-2-1-1 13-1 1 5zm-2-3s-1 0 0 0m815 770 10 1q-7 6-1 8l-5 3-1-10-3 2zM293 124l-1 6-2 5-5 2v-4l1-1 2-7zm44 794h1l2 4q-6 3-12-1h-1q0-4 4-5l2 2c2 5 3 2 4 0m503-781-3-1 8-6-2-2 2 2h1v-1h6c3 0-3 3 2 3l-1 1-7 1 3-2-1-1zM341 922l-3-4v-5h1l5 4 4-2c1 2 3 5-2 5v2zm312-788h1l-1 3-1 1h-2l-1-2q-1-5 1-8 3-4-1-5l5 1-1 6v3l-3 1 1 1zm220-9v2q-8 8-11-3zm603 139-5 2 5-12 1 7zM140 691h-1c0-4 3-8 0-12h6l-2 9z"></path>
  <path fill="#d13c2f" d="M649 123q4 1 1 5-2 3-1 8l-4-1q-2-6 3-12zm625 800q-2-6 5-9l4 6-2 2zM145 834l4 1 2 2q-2 4 1 6l-2 3zm1324-549 6-2 3 3-4 1-3 3h-2l-4-2zm-74 613v5l3-2 1 9-3 2-5-13 4-2zm-356 25q4-1 4-7h5v6z"></path>
  <path fill="#d13c2f" d="m1391 899 5 13-3 2-1-5q0-2-2-3l1-5zm86-302h-1l-1-3c4-3 0-3-1-5l4-7zm-415-465-3-8 9 1zm-464-7v3l-10 2-1-3q5 0 4-4h3zm484 4v-5l4-1v2l2 6h-5l2-1zm-55-5q1 6-4 5-5 1-3-5zm430 735-3-2 6-7h2zm-217 61 3 2c-4 0-8 3-13 0l3-1 5-2zM944 125v-3h4l3 1 1 1h4q-3 5-8 2zM647 922c2-2 6-2 3-6l2-2h5c-1 3-8 3-4 8zm83-793-9-5 3-1h5l3-1v3zm744 220q-4-7 3-6l1 4zM602 920v-4l9 6h-7zM328 126h2l2 4 1 2v1l1 5-3 2-3-5z"></path>
  <path fill="#d13c2f" d="M1466 350q5-3 5-1l1 2q4-1 3 4l-4 1zM169 874h6l1 4-2 2zm1307-554-5 1-2-5h7zm-2 19c-1-3-3-7 2-9v9zm-100 581-4-3 1-1 10 1zm102-678h-2l-1-12h1zm0 404q-6-5 0-8l1 8zm0-155h-4l2-7h3zM547 921q2-3 4-1h5l2 2zm660 1 9-5 1 4zm-790-2 9-2 2 4-10-1z"></path>
  <path fill="#d13c2f" d="m174 880 2-2h2l2 7zm-19-25q3-2 4 2l4 4-2 2zm1064 66 2-8h2v6zm245-73-3-6 6-1zm-181-724q-4 4-9 0zm-389 4-7-4 5-1 1 2 2 3zm584 439-1-11zM787 923q3-5 10-3zm310-799c-3 4-6 1-10 0zm-644 0v3l-6-1v-3zm650 797c3-4 5-1 7 1zm-6 1 4-4 2 3c-1 4-4 1-6 1m-407 1 3-2h5zM138 673l4-4q2 6-4 6zm977 250c2-1 3-5 5 0zm3-1s0 1 0 0M591 123q1 4-4 4v-4zm-429 59-5 5zm1165 741 8-1zm151-557-3-5zm-391 557v-3l1-1 3 3zm110-1h8zM587 123v4l-3-4zm38 799v-2l3-1 2-2-1 6zm852-454q-4-2 0-6zm-318-340 3-4 3 1zM589 922l6-1zm-113 1h7zM357 127l-3-1h7l-2 1zM250 921l7-1zm115 0h9zm300 2q2-6 5-1zm-28-1-6 1 1-2zm37 0 5-3 1 1-2 2zm803-378v-7zm-1 102v6h-3v-3l1-2zM639 922h5zm667 1 6-1zm-821-1 6-1zm244-799h-4zM408 923l6-1zm223-2v2h-2l1-5zM191 151l-1 4-2-1zm665-28v5l-3-3zm622 252v-6zM956 124h-4l4-2zm-624 5-2-4h4zm747-3-2-1v-1h3zm-41-2 1 2-1 1-2-3zM615 923l2-3 1 3zm862-262v-5zm-400 261v-4h1l1 4zm260 0h5zm-92 0h5zm230-509 3-2v3z"></path>
  <path fill="#d13c2f" d="m1079 126 1-2h1l1 3zm286 795 2-3 1 3zm-937 1-2-4 4 4zm19-799v3h-3v-2zm687 800c1 0 2-6 3 0zm-509-1h-4zm850-509 2 1 1 2-3-1zM241 918l5 2zm357-793-4-2h4zm879 455v-4zM596 921l1-3 1 2zm-28 0h4zm7 0h4zm617 1-1-2 1-1 2 2zm80-799-1 2-1-2zM541 922l4-1zm598 1h4zM175 165l-3 3zm282 758 2-4v3zm316-2-1-2 4 2zm-372 1 4-1zm58-799-1 2-3-1zm363 799 4-2zm-387 1h3zm487-800v2l-3-2zm557 309-1-3zm-321 492 2-2zm320-188-1-3zM493 922l3-1zm984-192v-3zm1-292v-3zm-253 482h2zM951 123l-3-1zM745 921l4-1v2h-3zm733-318v-3zm-226 320 3-1zm225-315 1-3zM814 923h3zm257-1v-2l2 1zm23 0 1-3v2zm342-762-2 1v-2zM276 922h3zm855-1 1-1 1 2h-1zM334 124l-2 1zm266 797 2-1 1 2zm96-798-1 2-1-2zm326 798h2zm-365 2h2zm4 0 2-1zm18 0h2zm6 0h2zm116 0h2zm18 0 2-1zm148-800-3-1zm196 800 2-1zM962 122h-2zm319 800 2-2zM186 155l-2 2zm747-32h-2zm428 799h2zM636 123h-2zm838 103v-2zm4 308-1-2zM528 128l-2-1zm950 402-2-2z"></path>
  <path fill="#d13c2f" d="m603 922-1-2 2 2zm873-659 1-2zM742 921v-2l2 2zm734-672-1-2zM893 125l-1-2h1zm422 797v-2l1 2zm91-16 1-1zm-329-782v2h-1zm400 355h-1v-1zm-3-140h2v1zm-161 584-1-2zq0 1 0 0M137 600v2zm938-474v1h-1zm400 401v-1zm-344 394 1 1zm346-543v-1zM417 920h-1zm304-796-1-1zm-79 754h19l1-1 19 1h24q-3 6-7 4l-7-1-11 3h-4l4 6 4-2 1 1-4 3-4 2-3-6q0-3-6-4l-4-3-2-1-5 2-2 8h-2l-2-1-4-2-2-3q4-3 0-3h-7zm10 7 1 1 1-2zm700 2 5-1-1-1 5 4-6 5v2l-1 3h2v-3l10-3q8-2 12 4l-1 2-4 1-3-5-4 10-4-3-3-2v3l-2 3-2-2q-1-5-4 0l-5-4 3-4 6-5-3-1z"></path>
  <path fill="#d13c2f" d="M1355 896v-2l6-5h1q5 1 6-5c1-5 1-5 7-9q-2 7 5 7l-10 3v2l7 1 1 9q-4-6-12-4l-10 3zm-723 25-2-4-2 2-3 1 2-7h-3l4-9-3-1 7-4 1 3q5 5 0 10l5 4-4 1-3-3v1l3 2 3 5zm0-15-2 2 2 1z"></path>
  <path fill="#d13c2f" d="m1378 897-1-10h4l2-3q6 6 14 0l-1 5-3 1q-4-1-6 2-4 5-4 11h-2l-4-4zm-12 8 5-10 2 5v5l7 1v7l-6 1c-2 0-6-5-6-7zm-638-25q14-3 27-1l-9 2h-16l2 4q1 2-1 3l-9 1q-3-4 6-9m-83 4 2 3-4 4-1-1h-1v1l-2 1 2 1h2l-1 4 3-1-7 7-1-1 3-6v-1 1l-3 2-5 1c4-4-3-2-1-5q7-1 8-8l4-3z"></path>
  <path fill="#d13c2f" d="M1383 903q0-5 4-10 2-4 6-2l4 5-2 1-4 2v1l-6 5zm-599-23q6-4 13-1l-1 3-8-1 1 3h-11zm494-1h12l-1 5-8-1zm-53 1 9-1-3 8-5-1 1-4zm-152 22c1 3 6 3 2 7h-4l-2-4q1-5 4-3m-410 2q0 3-3 3l-7 1v-3l2 1 1-3q4-5 7 1m429 4-5-1 1-4 10 2c-2 1-1 6-6 3v-1zm254-14h-7l4-7 5 7zm-652-4q0-8 8-3-2 6-8 3m65-4 2 1c1-5 3-2 5-1l-7 8h-1zm-13 2 1-3 5 1 1 4-2 3zm548-8 11-1c-2 2-9 4-11 3zm-649 32 2 2-1 1-5-3 8-10zm630-21 3-3 5 4-3 4zm105 14h-7v-5l4-1 3 4zm-654-8 4 1v1h-3l1 8q-6-4-2-10m317-13 3 1-7 8q-2-7 4-9m-55 17 1 3-5 1-1-3zm-304 5-2 1-2-11h3q-2 5 4 7l-2 2zm579-26 10-1q-3 6-10 1m-285 19 3 1-1 5-2-1zm371 8 4-1 1 1-4 5h-2zm-592-27 11-1zm483 0h8l-5 2zm-77 39 4-2-1 4zm86-39h4l3 3-1 1-7-2zm103 7h-1l-4 1-1-2 4-1zm-82 1 5-2v5zm-587 8h-3l-3-2 4-2zm418 22-3-4 3-2 1 1zm60-4-3-4 6-2zm63-20 1-3 2 2q-2 5-7 1zm-511-15 7-1-6 5zm576 21-7 3v-2zm-593 3q5 0 3 6zm561-9-2-5 5 4zm-26-7h4l-5 4-1-1zm-568-2-1 4-2-1 3-5zm608 20-2 1v-3l2-1z"></path>
  <path fill="#d13c2f" d="m1260 902 1-6 1 1zm-604 1-1 3-2-2 1-4zm707 8 1-2h1l-1 5h-1zm-98-6-1-4h1zm-366 5 2-3 1 1zm-254-14-3 1 1-4zm422 20h-1l4-1v1zm-372-8v2l-2-2zm576 7-3 1 1-2zm-584-22-1 2-1-1zm-2 12 2 2-3-1zm391 10-1-2h2zm-423-25h2v1l-1 1-2-1zm27-6 3 2-1 1zm-16-3 4 3h-2l-2-2zm595 0 3-1v3zm-288 21 2-1v1zm-330 2 2-2 1 1zm137-20-3 1v-2z"></path>
  <path fill="#d13c2f" d="m664 882 2 2-3 1v-2zm634 35 1-2h1zm-66-24-1 2-1-1zm-591 0-2-1 2-1zm55 10-2-1 1-1zm414 13 2 1-1 1zm166-10-2-1h1zm-41-11h-2l2-1zm-514-17h2l-2 2zm624 25h3v1zm0 0-1-1zm-56-3 2 1h-1zm-626 4v-3h1zm136 16 1-1zm-132-20-1-1 1-1zm30-1-2-1 1-1zm198 9h1zm165 6-1 1-1-1zm-376-3v-1zm-31-3-1 2-1-1zm418 12-1-1zm260-14-1 1-1-1zm-690-2-1 2-1-1zm629-16-1-2h1zm-496-8h2zm6 0h2zm-92 9v-1zm-31 5 1 2h-1zm36 1-1-1 1-1zm347 0h2zm-387-5-1-2zm631-2h-2zm-309 6-1-1zm120 7v-1h1zm256-19v1h-1zm-26 0v1zm13 22 1-1v1zm-82-23 2-1zm-1 8-1-1h1zm-29-3v1zm-65 28 1 1zm-440-34-1 1v-1zM146 487l1-7 2 2q5-5-3-5l-2 4-3-3v-4l2-5q6-1 5-9l4 2 1-1 2-1 1 1q4 2 0 4h-5q-3 8 5 12l-1 1h5l-4-4 8 1 1 6-6 4v-1l-4 7-5-6-3 4zm8 260c5 2 3 5 2 9l8-3c-2 3-5 5-1 7l-8 3-2 9-2-4-2-8 2-6q4-3 1-7zm26-217v15l-2 4c-5-7-4 3-7 3l-5-6v-1c1-6 7-5 10-6 2-3-5-9 4-9m-8-25q-8 3-5-5l7-5q1-6-5-7c3 1 8-2 8 5l1 4-3 7zm-28 52-4-1 1-3 5-3v-2l5 7 5 2a8 8 0 0 1-12 3l3-1zm-4 134 3-3 2-2q3-3 5-2l3 3-6 2h-1l1 1 3 7h-6l-1 3z"></path>
  <path fill="#d13c2f" d="m172 505 3-1 5-2v4l1 1-1 4 1 2h-1l-8-1zm-19 225 3 4 5 7h-6l-1 1 4 1c-6 6-5-3-8-4l3-3-2-3zm7-203 2 3 3 2q6-2 4 5l-11-3c0-2 3-5-2-6zm6 24 3 6-7 1-3-6 4-3-3-1 1-1 3 1zm-7-350 2 2 1 7q-9 1-9-8l3 3zm6 280-1-6 7-1v6zm-5 312-6 5-5-4 4-5z"></path>
  <path fill="#d13c2f" d="m180 502-5 2 3-7-1-3 2-1h1l1 7zm-14 114 5 4-4 7-3-10zm3-415q3-3 7 0l-5 4v-2l-6 1-4-1 5-3zm-12 528-4 1-3-4 2-7zm-12-341-5-3 3-3h5c-4 2 3 5-3 6m35-27 1 4-6 3 2-9zm-33-29v-7c5-3 2 3 4 4zm-1-28-4-3 7-5zm8 152q-5-6 1-9v8zm-7 348 10-1q-7 5-10 1m32-330 2 5-1 1-1-1-3-3-3-1v-1zm-39-194 7 2-4 4zm13 383 3-2-1 8h-2zm7 117-8-1 4-2 3-2h1zm-15-112v-3l4-1 1 1zm35-318v8h-1zm-20 425h-3l1-3 4-2v3zm-7-112-5-3 5-3zm3-202c2-3 2-3 8 1zm-7 240 5-3-1 4zm9-58h-3v-2h5zm-7 8v4h-4zm10 7v4l-5-4v-1zm-12-293c-5-2-2-3 1-4zm15 159q0 3-4 0zm11 131h-2l4-3 1 1zm-28-195-3 1-1-1 5-4zm12 49 3 2-1 1-4-2zm1 31h-4l1-2zm3 24-2 4q-2-5 2-4m-16 107-2 4-1-1zm12-206 2-3 1 2zm-7-3-4-2z"></path>
  <path fill="#d13c2f" d="M161 774h3l1 1zm-8-130-1 3-1-1zm13-133-2-2h1zm-13-15 2 1-1 1zm9 117 3-1v1zm-8 211h3zm-1-294-1-1 1-1zm2 122v2zm25 1v2zm-17-145-2 1v-1zm-6 102v2zm2 13v-2zm-14-78-1-1 1-1zm7-74h2zm9 0v1zm-10-150 1 1h-1zm-1 405-1 2v-1zm-3 32h-1v-1zm15-22v-1zm-22-70v1zm21-8v-1zm0 116h-1zm-1 6v1zm6-229v-1zm-19 253h-1zm2-10v1zm3-332h1zm-5 227v1zm498 195-2-1-4 4q-1 6-8 8c-2 2 5 0 1 4l-7 4-1 1q1-5 4-9h-5q3-6-3-5h-1l-1-2v-3c5-1 7-7 13-1l-1-5h6l6-1-4 3h7q4 0 0 3m-14 4-4 2q1 5 7 0zm-445-68v2q-2 9 4 13l-4 5-3-1v-15l-3 2-2 10-7 3-1-2 4-1-2-10q8 0 6-7l1-5q5 1 5 6l-2 1v1l2-2z"></path>
  <path fill="#d13c2f" d="M618 885v4l-4 4q0 5 7 6v4l-2 1-6-2-2 3-1-12-5 2 4-10h1l-1 5 1 1 2-4zm-400-22v1l1-1 5 1 1 2 1 1q4 6-2 8-2-5-5-7l-9-1zm-16 27h-1c0-3-7 1-3-4l1-2 9-3 2 3-1 4-3 1zm-35-49q2 5 7 3l7-3 1 3-7 6q-6 2-9-3-1-3 1-6m463 38 1 5c-6-6-9 0-13 1 0-5-5-3-7-5l8-1zm-43 1 10-1 2 3-5 6-5 1 2-6-7 1 4-2zm7 4-1-3h-1q0 2 2 3m-359-13h5l10 5v1c-3 2-14 0-17-2zm-20 2h4l-8 5h-6l1-5 6-2zm-4 2s0-1 0 0m-25 10-1-5h2l1-6h1l4 8 3-2-4 6zm153 28-4-4h1l1-1 5-2h1v-1l4-1-1 2v6h-1l-1-1zm200-15 5 1 5 4 1 2-11-1zm11 7v-2l2-4q4 5 10 2 0 5-12 4m-375-37c-2 1-4 5-7 2l-3-4c2-5 5-1 8-2h1v1l-1 1h1zm24 3 1-6 9-1v2zm-38-45 8 6v2h-10l3-2zm35 54v-5h1l-4-5 6 1 3 6zm21 20-1-1-3 4-5-2-2-1 4-2q5-3 9 1z"></path>
  <path fill="#d13c2f" d="m552 899-3 4-5-4 7-5zm-211 7-5 2-1 1h-1l-3-4 1-1 4 2-1-6 7 4v2zm282-11h5l-5 9-1 3-2-2 1-2v-4zm-246 2 2 2 5-1v1l-5 3-1 3h-2zm197-18h10l-10 5-1-2zm-203 0h8q-6 5-11 2zm45 31 5 2-4 5-2-1zm109 5h4v1h-10v-1zm-350-56 2-5q5 5 3 10zm-21-35h3l1 8h-2zm24 53-2 1-1-4 2-4 2 1zm13-16h-5l3-6 1 1zm184 33q-2-6 5-7z"></path>
  <path fill="#d13c2f" d="M183 854c5 1 2 4 2 7-6 0-1-4-2-7m27 30-2-4 5 3v2zm-4 5 3-1 2 5q-5 1-5-4m323 20q-5 2-3-5zm-380-76q-2-4 4-5zm225 69v4l-4-7 1-1zm-162-45 4 2-4 2zm152 45-1-4h2zm18 3 2 4h-2zm-207-41h-1l-2-3 3-2zm162 54q-1 4-4 0zm-133-58-2-1 2-2zm-10-3 3 1-1 2zm412 23 3-1-1 4zm-450-43-2-2 4-2zm445 43 4-1c0 6-3 0-4 1m-408 13 2-2 1 3h-1zm1-43v3l-1-1zm-22 4-3-1 1-1zm159 62-1-3 1-1zm-102-39 4-2zm153 4 1 1-1 1zm157 17-1-2h1zm27-19h2l-2 2zm-203 9 1-2 1 2zm-180-22 1-1v2zm8-39 2 3zm427 85v-2zm-7-3 1-1 1 1zm-428-55h-3l1-1zm0-6 1 1h-2zm9 24-1 1-1-1zm-1-20-1-1 1-1zm7 10 1 1-1 1zm168 41h1zm239 13-1-2h1zm-84-7 1 1h-1zm-90 7h-1v-1zm2 0 1 1h-1zm-277-79 2 1-1 1zm22-1 2 1-1 1zm-4-15-1 1-1-1zm2-4-1-1v-1zm191 75-1-1 1-1zm17 4-1 1h-1zm-15 0-1 1zm-175-39h-2zm128 50v2zm244-26-1 1v-1zm-368 3v1h-1zm96 34-1 1h-1zm164 1v-1zm-268-84v-1zm-16 31h-1l1-1zm143 52h-1zm599-753h-3l-2-1 6-8 4-9h-2l4-1-1-6v-4l1-1 2 4 9-2-2 7 1 1 5-6 1 5c3-3 9 1 11-5v2l11-1h1l1 4-5 2q-6-2-5 4v1h-1l1 1h1v2h1v-2q4 2 1 4-5 4-11 0l3-2-1-1-6 2q-2-4-4 0-2 2-1 4l2 6h-1c-6-3-4-9-3-14l-2-1-2 4q-2 4-5 3-5 0-7 5zm491 27-6-5 4-4 5-6 3 4c2 6-3 8-6 11m-30-19-14-3q7-5 8-13 6 3 0 7l8 3zm-354-31q-5-3-4-10l8 5 2-4h1v7h-2zm-2-6s0 1 0 0m117 3-1-1 1-4c1-1 13-1 15 1q-3 6-6 2zm283 22 4 2 1 4h1l-1 9-3-2-4-5h-1l4-2zm-389-13v6l-12-1 2-5zm-3 4s-1 0 0 0"></path>
  <path fill="#d13c2f" d="M1032 148h-10l-1-2v-2l2-2 5-2 2 1 3 3v2zm126-16 11 6h-8v5h-6l1-4c5-2 1-5 2-7m234 32 4-3 4-6 2 5-4 2 2 4q-4 3-8-1zm-273-31-8 5 1 2-2-4-3 2q3-11 12-5m-4 0v2zm-3 3h-1zm320 57-6 1 4-2-6-5 6-6c2 4-1 8 2 12m-393-45q5 2 6-3 6 7 3 11l-4-5-6 2zm349 29-6-2v-7l7 3zm-324-37v4q-1 5-4 6l-5-4 7-2-1-2v-1zm-111 10q-1-5 5-4 2 1 5-2l-1 5-1 1zm172-13 3-3 3 5-5 3 1 2-4-3z"></path>
  <path fill="#d13c2f" d="M1392 164v6h-3l1-5-1-1-1 3h-2v-6q4-1 6 2m-430-23-5-2v-2l10-3v1zm196-8c-1 2 3 5-2 7l-2-4 2-2-2-4h2l2-1v1zm250 15-3 4-2-5v-4l3-1 2 3zm28 51 3 3v9l-2-3-3-6v-1l2-1zm-485-62-5 1-1-2v-2h4l3-1zm121-2 2 6-1 1-3-2q-2-3 2-5m-11 8 1 2-7 2v-2l2-3h3zm324 0 4 2-4 8h-1zm-350-5-2 5c-4-1 0-4-1-6zm268-1-2-3 5-1c-1 2 2 6-3 4m-62 12 2 7 3-2-5 1q0-5-4-4zm129-10-3 2-2-4 1-1zm-310 3-2-3 7-1 3 2-3 1-3 1zm358 12c1-2-1-7 5-5v3zm-245-14-1-4 5 1v1zm34 7h-7l4-4zm31-6 5 2-1 2zm-224-4-3-1-1-1 6-1 1 1zm381 46-4-2 4-1zm-260-30 5-3q1 6-5 3m213 14h-6c2-4 4 0 6 0m50 6v2l-2-1v-4zm-112-44-4 1-1-2zm-338 37-5 1q2-5 5-1m21-20-2 5-1-1zm423 5v5q-3-6 0-5m-435-23 2-1v4zm91 15 3 2zm-106-14v4l-4-1v-1zm120 4 1 4h-2zm73 20-4-2 1-2zm-105-22 1-2h1v4zm-48 11-1 3-2-1zm440 39v-2h1zm-213-39 2 2-2 1zm-244 0v-3l2 1zm416 23v2l-2-2zm-7-26 1 3q-4-1-1-3m-363 6 1-3 1 1zm-5-2-1-2 1-1zm119-5-4-2 1-1zm229 31h-4zm-384-34 2 2-2 1zm440 31 1 2h-2zm-76 1h-3zm-332-26-1 2-1-2zm241 19 3 2-1 1zm-302-4-1 3-2-1zm15-23-1-1 1-1zm405 4 1 1-1 1zm54 31-2-1 1-1zm-180-25 2 1-1 1zm157 33 1-1 1 1zm23 4-1-1h1zm-364-20h-1l-1-1zm311 11-3-1zm-341-26v2l-2-1zm12 2v-3l2 2zm49-17 3 1-2 1zm-12 3 1-2 1 1zm-53 19h1zm18-4 2 1zm358 9-1 1-1-1zm-377-14-1 1-1-1zm21-7-2 2zm343 37h-2zm28-25h2v1zm-424-17-1 1v-1z"></path>
  <path fill="#d13c2f" d="M947 133v-2h1zm8 19v2h-1v-2zm481 47-2 1zm-45-20-2-1zm-447-46-1-1zm344-6-2 1zm-335 25-1-1h1zm109-16h2v1h-2zm-320 29-8 1 1-2 3-3-3-3 2-14 7 7 5-6 9 1v1l-6 1v2h-1v1l1-1-1 7-3-7-1 3-3 7-2 1zm-2-1v-1h-1zm-359-19v-3l-5 2-1-6 13 3 5-8 3 1 4-2h1l-4 4-2 7-3-2v13l-5-1zm521 20-10 1 2-6-1-1-4 3-1-1 7-8v4l5 1h3c4 0 0-10 7-6l-3 7zm-62-28 8-6 1 1-3 2q-2 5 3 3l-3-3 7-1 4 2-3 3 3 3c-4 1-7 5-11 1l-5 1-1-4zm-188 24-1-4-2-6-4 3-4-1-2 3-1-1 5-11v6l8-1 4 3 4 6zm225 5h-12l4-13q8 4 4 10zm-172-34q9 1 16-3l-5 7 2 1c-6 5-10-3-17-2zm196-2 5 1q5-6 11-4h6l-3 4-7 2h-15z"></path>
  <path fill="#d13c2f" d="m381 145 6 8-3 1 3 5h-2q-1-5-4-1l-5 2v-6l4-3zm481 2 2 3v1l1 2-2 2h-2l-3 1q-1 4-7 2l5-2-4-1-1-1 9-5h2v-1zm-145 4 7-2 8 5-1 2h-4q-2-3-6-1c-3 2-3-2-4-4m-35-18 5-1 4 4-1 3-4-3-3-2v4l-6 1zm-68 22q2-12 10-5l-2 6-3-5c-1 1-1 5-5 4m44-21 5-2 1 6q-3-2-4 8l-7-4 6-3zm215 16 5-3 2 4 6-2v2l-2 1c-7 5-7 5-11-2m-470-2 4-2q2 6-3 4l-1 1-2 6-2-1 2-7zm104 5v4l-14-6 9-2q3 0 5 4m223-24 2-4 3-1 3 2 1 1v4h-3l-5-2zm168 4 8 1 1 3c-4-1-9 3-12-2zm9 4v-3l6-1 2 3v2l-5 1zm-118 0-7 1 3-6 9 5v1zm-193-2q0 4-3 6l-7-7h1l3 3zm36-1q-2-4 1-8l5 2-4 6-2 3zm-232 31h-16l1-4 7 1zm106-23-1-2 3-5 2 3q1 4-4 4m139-7 4 1 1 2-5 7h-1l1-8zm-14 13c-2 4 3 2 4 4l-3 7c0-5-6-7-1-11m-237 12v-9h2l2 8z"></path>
  <path fill="#d13c2f" d="m915 136-2-2 7-3 1 3zm24-6v3l-7-4q2-2 7 0m-125 0 3-3 5 3-6 2h-1l-1-1zm-379 26-2 4-5-4zm317 2 5 1v1h-10v-1zm7-16 4 1v2l-6 1-1-5 1-1zm165-15 5 2v2l-4 1-1-2h1l-1-1zm-307 10-6-3c4 0 7 1 7-5l1 2zm13 8-7-1 2-3zm9 20-5 1 2-5h1zm-201-34 6-3 1 5zm-41 6 4-4q5 1 2 4l-2 1zm382 2-5 1v-1l5-3zm-205-9 6 2h-9zm8 2 1-3 3 4zm321 21-4 3-1-2zm-272-4 1-5 3 7z"></path>
  <path fill="#d13c2f" d="m401 137 2-1h3l1 4zm54-8q2-3 4 2zm-32 36h-4v-3zm-42-7q3-4 4 1v2zm225-20-3-3 2-1zm14 25 1-4 2 1zm27 1h-1l-5-2 1-1zm-208-27-1-3h2zm323 28h-5zm8-22 1-3 1 1zm46-11 4 3h-3zm75 23v-4l2 1zm-295-20 4-3 1 1zm333-7 5-1zm-519 37h-2l3-3 1 1zm256-22-1-2h2zm217 22-3 1zm-257-12h2v1zm98 12h-3zm-154-40 3 2zm337 34 3 1-1 1zm-131-17-1 2-1-2zm40-9 1 2zm-56 25 2 1-1 1zm-141 7h-3zm-16-34h2l-2 2zm343 6-3 3 1-3zm-32 18-1 2-1-1zm-53 0h2l-1 2zm77-29 2 1zm-531 39h-2zm324 0h-2zm-79-27v-1l2 1zm-208-2-2 1v-1zm502 1h-2l1-2zm-296 5 1 1zm-14 16-1 1v-1zm111-5 1 2h-1zm-102 1v2zm-58-20v-2zm846 652v-27l4-2h2l2 1v4l-2 2-2-1v2l2 2h2v2l-5 1q-4 8 5 8l2 13h-2l-2-1h-1l-1-1z"></path>
  <path fill="#d13c2f" d="M1441 762v-4h1l5 1 2 2 5 1 4 2-1 3-9 6v2c-8-4 3-5 1-7l-8 1v-2q5-3 0-5m26 8q1 10-8 12l1-4-2-3v-2h2l2-4v-2zm-70 126-4-5 3-2h6l-1 6-4-2 4 2zm44-105h2q6 8-3 11l2-7-2-2v-1zm10 63-3-4c8 1 2-6 5-6q4 9-2 10m-11-62v2l-3 1-4-5v-3l4 2 1 1h1zm31 18 1-3h1l1 6h-1zm-51 35 3-4 1 1zm37-62 3 3q-6 2-3-3m-11 0v-3l2-2 1 1-2 4zm3 9v-4h2zm-24 54h2l1 1-5 1-1-1z"></path>
  <path fill="#d13c2f" d="m1462 769-2 4-1-4zm-33 67-2-4q4 2 1 3m34-68v1l-2-4 2 2zm-4 23-2 1v-2zm12 22 2 2-1 1zm-24 52-3-1 1-2zm-63 17v-2zm45-43h-1zm-1 3h-1m20-58-1 2h-1zm0-3v2l-2-1zm5 83v-1zm7-89-1-1zm-56 115 1-1zm57-125 1-1v1zm-10 28v1zm17-442 5 6-4-1-13 3-1-3q-7 6-8-4-2-6 4-5l1 5h1l3-5v2l4 2 2 2v-1l-2-1 1-3 1-3h3v2q-2 5 3 4m-3 5v-2h-1zm0-11h-4l-2-5-5-3 1-5 2-1 9 1 3 4 1 5-4-4zm-2-9-1 1v1zm-9-32 9-2c-1 3-6 2-4 6l-3-2 1 8-1 1q-1-9-10-8l1-5zm-7 22q6 2 7-4l2 3v-1l9 3-1 2-9-1-4 2h-1zm18-17q-1 6 5 3l1 2-7 3-1-2-2 4-1-1zm7-38q-3 5-8 3l1-8 5 1-3 4v1z"></path>
  <path fill="#d13c2f" d="m1457 339 2 5h-1l-4 2q0-4-6-6l1-1 5 2h1zm-13 12-3 1 4 4-6-1 2-6zm-10 5v-5c4-1 1 4 4 5l-2 4zm34-21-4-4h1l6 2v1zm-23-81-1 3-4-2v-4zm24-10-1-5 1-1 1 3 3 4zm-13 23-1-2q7 0 4 6zm-7 62 4-2 2 3-2 1h-4l-1-1zm-4-4 3 4v1h-3zm24-43-4-5 2-1 2 5z"></path>
  <path fill="#d13c2f" d="M1445 330h3l1 1-2 2zm21-28v5l-3-3zm-33 44v-3zm26-38 2-3 1 1zm10-14v3zm0-12 5 2zm-13-13v2h-1zm-23 72v-2zm7 5 1-1 1 1zm24-55v-1zm-14 46-1 1-1-1zm15-17-1-1 1-1zm-13-3v2h-1zm14-72v2zm6 5 1 1zm-1 25 1 1zm-12 33v1zm9 330-5-1 4-3q-6-1-3-7l-7 4h-4l-3 5v-3h-2l-5 2-3-4 11-10-7 1 1-8 1-1 1 5 10 1-1 7 3-5q-1-2 3-3h3c-1 5 4 4 7 6zm6-122-1 2-5-4q-9 11-11 3l2-1h-1l-1 1-11 2 3-3-5-4-5 4 2-4-4 3-1-7 6 1-1-4 6 4 5-3-1-1 3 1 4-8h5l-3 4 5 5 6 3q-3 4 3 6m-18-3-1-4-2 1zm10-1 2-1-1-1zm-4 0s1 0 0 0m-7 25v-4h-1v4h-2l-4-9 7 1-1-4q7 2 8 9l2 4-5 2zm5-1s-1 0 0 0"></path>
  <path fill="#d13c2f" d="m1443 635 5-2h2l-1 3-3 2-4 3 1 1 3-2c2 6 2 6-1 9l-3 1c-2 0-3-5-5-1l-1-1v-3l1-1v-1l4-5 1-2zm-9-69-1-9q6-1 4 4l1 1q4 4 1 7zm14 38q-5-2-5-8v-1l8 7zm11-54q4 4-2 5l-2-6q-1-2 1-4z"></path>
  <path fill="#d13c2f" d="m1443 635-1 1-1 2-4 5 2-12zm16-85-3-5v-2l-2-2 1-4 4 3zm-23 95v4l-1 6-1-10zm29-27h-3l-2-3 1-4 4 4h-1v1l1-1 2 1zm-32-99v-5l3 4zm13 73 4-4 1 2zm27-3c1 2 5 2 2 5zm-2 49 1 4-2 1-1-5zm-35-120 3 1 1 2-1 1zm14 36-4 2-1-1zm0 0 3-3 1 1zm-17 88v-3zm3-99-3-2zm12 61v2l-2-1zm9-49h-2zm18 42v2h-1zm-41-68h2v1zm26 86-1 1v-1zm-4-72v1zm-19 101-1 1zM221 183l-17 14q-5 0-3 4l-5 2-7-3 3-6 2 7 6-10 2 4q-1-10 8-13l-4-1q-4 1-6-2 5-8 12-1l5 3-1-6h3zm-12-5h1m12 5-3-8 1-6 5 7 5-6 5 4v1l-4 2zm-1-3s1 0 0 0m-26 8-4 5-1-5-4-3-2-2 2-1 2-3zm-26 13-3-1-1-1c4-4-1-3-3-5h5v-1l-5-2 4-6 2 5c1 2 5 4 1 6zm111-53 1-2 2-1 6-1-5 4-2 1zm-6-11 6-3-6 7zm-40 29-4 4-1-6 1-1zm37-30-3 1 3 3-1 1-7-3 1-2zm-3 30-6 4c-1-6 4-4 6-4"></path>
  <path fill="#d13c2f" d="m195 188 3-3h1l-2 7h-1zm21-13 1 6-5-3h1l1-2zm41-6h-2l-2-2 5-1zm34-3h-3q2-3-1-5 4 0 4 5m-42-23v-3h1zm-49 36-1 2v-1zm54-41-1 2-1-1zm-40 38-1 2zm4-39 1-1zm1218 607-2-14 5-1-1-1-4 1-1-6h4v-2h-4v-7h3l-1 4q6-3 4 4l2 3v5c-5 2-1 5-1 8l2 4h3l3 3-5 3-5 4 2-7z"></path>
  <path fill="#d13c2f" d="m1443 748 5-3-3-3 3-6 8 13 6 3-1 3-5-3c-2 2 1 8-5 6v-2q-6 0-8-7zm-2-23-2-3q2-6-4-4l1-5 3-1 4 5 2 4v3z"></path>
  <path fill="#d13c2f" d="m1439 712-3 1h-3l-1-5q8 2 15 6l-4 3zl-4-2v1zm6-63c3-2 3-2 1-9l-3 2-1-1 4-3c2 2 7 0 5 6l-1 2q0 5-5 3m-12 26 1-13q8 7-1 13m14 39 8 7-1 1-2-2-3 5h-2q3-5-2-7zm-4 35q2 7 9 7l-1 2-4 1-5-1v-2zm14-118h4l-5 9-3-5zm-8 66-2-8h1l5 8zm-14-42 1-6h1l4 4 1 5-2-2-2-1zm34 16q5 4-3 9z"></path>
  <path fill="#d13c2f" d="m1441 653-4-4c2-4 3 1 5 1v2zm33-2-3 5q-2-6 3-6m-12 117 4-2 1 6zm-20-33h4v1zm18-95 1-3h1zm-25 20-1-3 3 2zm21-15 1 2h-2zm19 4-1 2-2-1zm-33 94-2-4h2zm-1-12v-3zm5 0h2l-1 2zm-5-77 2 2zm-1 23 2-1v1zm14-28h-2zm6-9-1 2v-1zm-18 19 2 1-1 1zm1 71h2zm-5-74 2 1zm31-9h-1zm-19 0 1-2zm16 34-1 1zm-32-19v-1zM406 136h-3q3-3-2-4h-1l-3-2-1 4-3-1-5 8-13-3-6-4-1-4q6-6 14-3v4l1 1 2-5q2-5 6-2l2 1c3-3 6 1 9 0l-1 3 6-1zm-27 0s0 1 0 0m-3 18v2l-3 1q-5 6-13 1v-1l4-4 2-3-4-7 3-1 4 5 4 3zm-60 11h-3l-4-4c3-1-2-7 5-5l2-1 2-3h1v5l8-1q8 2 3 10h-2l1-5-11-1zm32-12-1 1-6-1-1-3 8-11 1-2 5 8-6 6zm-47 13h-4l-3-3q-4-2 0-8l2 4q2-9 7-4c-6 2-1 7-2 11m27-40v8h-2l-1 1v1l1 1-3 2-2-1v-5q-2-9 7-7m-6 8v1"></path>
  <path fill="#d13c2f" d="m341 153 6 1 7 1q-2 6-8 1zm19 4-5 2-1-5 3-5q2 2 3 7m-47-13 2 3q-8-1-4-9zm18-4 3-2 1-1 1 4zm-8 0 4-2 2 5zm33-3-5 1c1-1 3-6 5-1m6 4c-3-4 2-3 3-5zm-31 7v3l-3-3zm-11-3h4v1zm-1 8-2-1v-1zm-11 0-1-2h2zm49-23-1 3-1-1zm3 15v2l-2-1zm-77 1-2 1v-2zm22-1-1 1-1-1zm-4 3v-2zm15 8-2 1zm41-28h2l-2 2zm-62 39h-2zm53-13v-1l1-1zm-62-21-1 1-1-1zm1187 282-8 1 2 3-4 3-2-2q-4 0-3-5l1-1v-2c4-6-3-5-4-9l-1 3h-1l-1-1-2 3h-1l1-9v-6c5-1 2 4 4 6l1-7c1 4 8 0 7 6h-3l-1 4 1-1h1c0 5 4 2 6 4l3-6q-1 9 4 16m-21-14s0 1 0 0m-19 50v-16l3 1v5l1-2 4-1v2l-7 5 4 1v2z"></path>
  <path fill="#d13c2f" d="M1433 394v-8h2l2 2v1l1 2v8l-4 1-1-4zm20 35-2-8-3-2v-2c3 1 6 4 8-2l2 8h-5l1 5zm-12 8h-4l-1 3v-6l4-5h-4l4-4 1 1zm5-52 1-3 6-2-1 7-2-1v2l-2 2-1-3zm25 6-1 4-9 5v-2l1-1q6-2 6-7l2-3 1 3zm-13 37 9 9-5 1-5-8zm-26-46 1-13h2l1 4-1 8zm22 23 1-3c1 3 8 3 4 9l-2-1-2-4zm-4 33-3 7-2-7zm-1-31 1 4-7-1v-1zm4 33 6 5h-4l-1-1h-3z"></path>
  <path fill="#d13c2f" d="m1454 444-3 4-2-2zm-16-34 3 1-4 3-1-5zm3 29c6 1 2 4 1 7zm12-5q4 3 0 6l-1-3v-1zm5 22 4-2 1 2zm-20-57 6-1v2zm-5 4 1-3q4 3 0 5h-1zm14-26 3 1-1 1zm-3 50 4 1-1 1-3-1zm-8-54-1-4q5 0 1 4m4 44 1 2-1 1zm0-35h2v4h-1zm1 8 1-2 1 1zm-4-2-2-2 1-1zm2-10 2 1-1 1zm14 51 2 2-3 1zm-20-46 3-1 1 1zm0 48v-2h3zm33-44 1 1h-2zm-17 37-2-1 1-1zm1-36v-2l2 1zm-5 29h1zm11-32v1zm-16-19v2h-1zm26-4h1zm-8 90v-2zm-12-67 1 2zm-7 23v-1zm13 28-2 1zm7-23-1 1zm-2-3 2 1zm-15-28 1-1v1zm-4 9-1-2zm22 107h-2l-3-1q-6 0-1-6zm-14 5 2 2-3 1zm6-3 1 3-2-1zm-19 9v-2zm21-18-1-1h1zM868 138l2-1-1 6h-4zm-7-6 5 3q-4 3-5-3m0 0-2-3 2-1zm614 310q3 2-1 3l-3-2zm-6 9v2zM440 128v-2l1 1zm254-1-3 3-1-2zm-40 5-1-1zm-1 2-2 1v-1zm173-1-4-1v-1zm231 5 2 3h-2c-5-4-5-4-3-10 0 4 6 2 3 7m-8-9-1 1-1-1zm-10 9 1-1 1 1zM345 912l3 3-4 2-5-4 4-2zm1-4v-1zm811-782h-3v-2zm-1 2-2 1-1-2zM728 917l2-2 1 1zm-2 1v-1zm579-793h-1zm-745 8-2-1 1-1zm178-7-3-2zm26-2 2-1v1zm706 174 1 1zM145 462v2zm-4 0-1 1v-1zm260 450 6 2q-5 1-6-2m-9 5c6 1-1 2 0 3zm-184-16 5 2h-5zm-24-14 2-2zm149-755 1 1zm1090 19v-3zm38 247v2h-2v-3zM165 199l-5 3-2-2zm157 708v2l-4-1zm865 12-2 2-1-1zM296 128l-1 1zm1170 222q-5 1-3-4zM202 493l-1-3v-9l1-12v-33l1-13-1-3c1-3-3-6 2-7a53 53 0 0 1-1-34v-1c-3-11-1-23-2-34l2-7c3 3 2 9 8 5l1-16 1-35 3-2-1 55 1 19 1 20-1 18v143q-2 11 0 21c1 7-3 13-1 21q3 10 1 21v66l1 49v31l1 26q0 21 11 38 13 13 28 20l-3 2v2l6-2v1h9q2 6 8 4l2 10 9-3-6-6 1-1 4 2h2l10 3c1-2-2-6 3-5l1 8-6 5h-1l-2-5-2 5h-4q-4-5-7 0l-1-1h-2l-5-1h-3c-5-2 0-7-3-11l-7 8-6-8v4l-17-4q-12-6-20-17-9-12-13-27l-2-21-1-42 1-2 1 1 6 3v-1l-3-2 8-2-7-3-4 4v-4q3-3 0-7a91 91 0 0 1 0-40q1-3-1-8l-1-27 2-17-1-9v-28l1-13-1-10-1-14v-61l2-1 1 5 5-3-6-4zm533 363-35 1H427l-14-1-1-2-1 3-45-1q-1-5 4-5l3 1v-8q7 3 14-2h137q29-1 59 2l9-1h4l3 1 9-1 12-1h2l1 1 4-1h7l3 1 2-1h5q6 5 11 0h6q3 5 5 0l3 1v2l-3 2 2 1 1-3 2-3h7v2l1-1 3-1h8l2 1 1 3 2-2 1-2h18l19 1v2l-1 2h-1v1h3l1 1 2-1h-3v-3h2l1 1-1-2h-1v-1h3l1 1 3 1 3-2 2 1 1 5-4 1-4-2zm-343-3-1 1h2zm280-6 1 1 1-1zm3-4-1 1 1 1zm8 4v-1h-2zm-20 0h-1zm-280-1-1 1 1 1zm293 1 1 1 1-1zm-6 3 1 1v-1zm16-6q0 1 0 0m-259 0s-1 0 0 0"></path>
  <path fill="#d13c2f" d="m1063 857-5-2-2 1-25 1H910l-9-1v-2l2-3-7-6c-5-1-11 6-19 0l-6 3h-4c2-4-3-3-4-6h148v3l2-2h5q5 4 7 0h8q3 3 5-1h15q5 4 9 0l4 1-4 3 1 7h1l4-11h1l5 2-1 3 3 1 6-5 7-1 2 2 1-2h1v1l2 2-1 3-5-1 2 5-4-1h-2l-2 6-17-1zm17-6 3-2-2-1zm3-5s1 0 0 0m-713 5q-5 0-5 5l-21 1h-31l-5-1q1-5-5-4l-1-9 5 2 1-3 26-1 5 1 6 1q4-3 9-1h4q3 4 5 0h3c1 4 6 5 4 9m-12 0 1-1 1-2-2-1-1 3-1 1zm-47-3-1 1 1 1zm55 0-1 1h1zm817 9h-4l-2-1h1l-5 1-4-1-2-2q-6-1-11 2l-1-8 7-2 1-1-3-3 12 1 4 2 1-1-3-2 7 1c4 1 8 4 11-1h2v5l9-4 5-1q4 5 9 0h10l-2 3q6 3 5-4l4 1v2l-2 2 2 3 1 2v2l-7-1-3 5-5-1-3 1zm34-11 1 5 2-1v-2h-1v-2h1v-1zm-52 5 1 1 1-1z"></path>
  <path fill="#d13c2f" d="M901 854v2h-8l-7-2q-6-2-9 3h-12l-6-1-7-3 2 4-10-1-2-5-5-4 8-5 2 1 2 1 2 2 7-4h5c1 3 6 2 4 6h4l6-3c7 7 14 0 19 0l7 6zm-41-9v-1zm375 8v-2l-1-2-2-3 2-2 2-2h4l1 2 2 1v8q3-3 10-3l5-4 2 5q2-9 16-6l-2 1 11 11h-16l-3-1-3 1-23-1-3-2zm12-1s1 0 0 0m-467 4-7-1-1-2q4 0 4-3l3-3 5 1 1-5h5l2-1h17l1 1v1l6 4 9-5 1 2-4 6v1l-4 1-5-1v4h-2c-3-6-5 0-7 0l-5 1 3-5 3-1-1-2-11 5 2 2h-6l-4-5zm25-11 3 1v-2zm6 2v1m1 3s1 0 0 0m-1 1"></path>
  <path fill="#d13c2f" d="M772 853v3c-4-2-7-5-9 1l-19-1v-6l4-1-1-6v-1l8 1h6l2 1h2l2-1h13v1l-1 3-3 3c-2-2 0-7-4-6l-1 5zm-11 0-5-2-1 2zm-8-3v-1l-3 1v1zm402-2 1 7-7 2h-10l-2-3-1 3-5-1-3-2-1 3-5-1 3-3q-8 3-9-4l11-1-5-5 7-1 2 1q3 5 9 4 4 4 8 1zm-28 4 1-2-1-1zm158 5-11-11 2-1q-14-3-16 6l-2-5-1-3-6 2-1-3h20l12-1 14 3 3 4-1 3-3 1-3-3-5 1q-3 3 2 4l1 2z"></path>
  <path fill="#d13c2f" d="m1084 857 1-6h2l4 1 3-4 2-3 2-2h13l2-1h3c0 2 3 4 0 6l-2-1v-1l-1 1-2 2 1 2 4 4-12-2h-4l1 4zm-262-5 8-1q5 1 4-3h1v-1l-1 1q-5 2-3-3h-4l-1 1-1-2-9 5-5-4 6-2 19 1 2-1 7 1-8 4 5 4 2 5-15 1-1-3-2 3-5-1zm2 3s0 1 0 0m515 2h-6c-2-5-3 0-5 0h-2l-6-1-2-6 4-3h5q4-4 10-1 4 3 10 0 5-3 12-4v1q-10 2-15 9z"></path>
  <path fill="#d13c2f" d="m1339 857 5-5a27 27 0 0 1 15-9l9 6-6 4zm7-5s0 1 0 0m-1109-8 17 4-1-4 7 7 7-7c3 4-2 8 3 11l-11-1-10-3zm1085 2-4 3 2 6v1h-8l-6-4v-3l2-2h1l1-1 2-3q7-2 10 3m-8 6h2l-1-2zm4 1s0 1 0 0m-217 4-1-4h4l12 2-5-6 2-2h1l2 1v1q1 7 9 4l-4 3zm-357-7-1 6h-8l5-8zm405 7 7-1q5-3 11-2l2 2zm141 0-1-3q-5 0-2-4l5-1 3 3v3l-2 2zm-413 0q3-4 9-3l7 2zm358-4 2 1-1 3h-11l3-5zm-455 3 5-5 3 5zm15 1-2-3 11-5 1 2-3 1-3 4zm500-1v-2h10l-1 4h-8zm-482 2v-4l5 1 1 3zm-516 0 6-5 3 5zm466 0q3-6 9-1zm41-1c2 0 4-6 7 0z"></path>
  <path fill="#d13c2f" d="m1304 857 1-4h1l6 3zm-998 0-3-5q6-1 5 4zm548 0-2-4 7 3zm-562 0 2-5 2 4zm-11 0q3-4 6 0zm538 0-1-4 4-1-1 4zm509 0c2 0 3-5 5 0zm-201 0 1-3 3 2zm193 0 6 1zm-84 0 1-3 2 2zm-410 0 2-3 1 3zm-552-1h4zm899 1 4-1zm90 0 3-1zm-46 0 3-1zm-81 0 1-2 1 2zm-725 0 1-3 1 2zm858 0h2zm-633 22h-2zm420-23 2-1zm-191 1h2zm430-2v1l-2 1zm-112 2 2-1zm-120 0 2-1zm-728 23h-2l1-1zm-56-24h1zm898 0h2zm-525 29 2-1-1 2zm703 11v4h-2zm-723 10v3l-2-1zm2 11-3-2v-1zm6-21v-1zm452 12v-1zM184 627l5-6 2 1-5 8h-2zm18 97q4 4 1 6zm1 11v-3zm17 128-1 1zm-4-575-3 3-1 35-1 16c-6 4-5-2-7-5q-1 0 0 0l3-9 3-1-2-6v-6q1-5-1-8a27 27 0 0 1-2-19q2-5-4-4l1-5h2v-10l-2-4v-3q5-6 2-12v-1l2-5 2-2h1-3a78 78 0 0 1 30-38q11-7 23-12l26-2 39 1c2 1 3 6 4 0h20l38 1 56-1-2 4-2 3v1q-7-4-9 3v4l-22-1-19-3-1 4h-8l-2-1q-7-6-11 0v-3l-5 1q-5-2-4 3h-8l-3-3 1 3h-38l-12-1-22 1a53 53 0 0 0-37 15q-8 8-15 18l-4 1 3 3-2 2-1 6-1 2q-4 3-1 5v1l-4 4-1 18q0 4 4 4zm195-88 6-6h-12l4 7zm7-3v3h6v-3zm-94-1 1-2h-1zm109-2s0 1 0 0m4 3s-1 0 0 0"></path>
  <path fill="#d13c2f" d="M201 285q6-2 4 4a27 27 0 0 0 2 18v8l1 7 2 5h-3l-4 10-2-9zm1-19 2 4v9h-3zm1-15q3 6-1 12zm-2-50q-2-4 3-4zm5 44-1 4zm2-3-2 2v-2zm-5 137h-2l2-1zm420 516-2 4q-7-1-7-6l4-4 1 1v1l1-1q6 0 3 5m8-7 3 2q-6 5-7-1zm-11 2-1 1zm-436-70-2 2-1-1zm437 80v3zm-1 6 2-1zm-27-22-2-3h1zm-251 22v-1zm-7 3 1-1zm105-714 2-4h2c2 5 4 2 5 0h3c8 4 16 0 23 0h42l56-1 73 1h105l31 1 18-1h479l30 1h25c1 6 4 1 5 2q4 4 7 3 3-2 6 1l6 4v-1l5 4-3 5-2-1-2 1-1-1-1 1-15-3 5-2h-13v1h-7l-16-1-1-5c-5-3-3 4-8 3l5 4-8-1 2-4c-4 2-7 5-10 0l-2 1-3 1-5 2-6-1-3-1-3 2-2-1-3-1-10-4v4h-1v-1l-1 2-9-1-3-2-1 3-6-1c-4-2-7-8-12-2l2 2-3 1h-17l-3-5-3 2h-3l-4 3h-59l-43 1-49-1v-1l-1 1h-2c-3-5-5-1-7 1l-2-1-1-2-1 2h-5v-5l-9 3-3-4-2 6-22 1-30-1H850l-44 1-35-1h-49l-30 1-15-1-1-2-1 2h-22l3-3-10 2h-3l-3 1h-1l-3-2-1 3-6-3h-1l-3 1-2-3-2 4-3-1c-2-4-3-1-5 0h-3l-4-1q-1-3-3-2-7 6-18 2-5-3-9 3l-1-1c-4-4-8-1-12-2l-2 3-4-1-3-3-1 4h-6l-1-5-6 5-1-1c0-5-4 0-5-2l-2 3h-4l-8-1-3 1-9-2-1 2h-6v-5l-4 2-4 3h-1l-2-2v2l-7-1-5-1h-1c-2-1-2-6-5-2q-6-1-5 4l-5-1-3-3-7 1h-12l-2-3v-2h3l1 2 1-1-2-1zm224 7v-2l-3 3zm-114-1 1-2-1-1zm121-1v2h1zm351 0-1 1v1zm323 1 3-1-1-1zm-129-2h-1zm-677-1v2zm676 5h1v-1zm-623 0h-1zm436-2h-1zm-578-6-1-1zm42 7-1-1zm179-4"></path>
  <path fill="#d13c2f" d="m1360 211 3-6-5-4v1l-6-4q-3-2-6-1t-7-3c-1-1-4 4-5-2a84 84 0 0 1 44 10l3 2 2 1 8 9a80 80 0 0 1 20 40q3 18 1 36l1 35v5l-1 5v25l1 1v118l-2 5 2 38-1 39 1 29v53l-2 10 1 5 1 24 1 34-1 3q-3 6-1 13l1 12c-1 21 2 42-5 62q-5 13-14 23l-12 13h-1l-3 2-5 2-3-1 1 3-2 1-10-6v-1l1-6 3 1v2-3l10-6 1 7c6-3 3-6 1-9a58 58 0 0 0 22-35l1-6v-46h1l-1-1v-79h1l-1-1v-4l4 4 2-1q-5-6-6-14v-43l1-3 1 2 1-3 2-2h-1l-1 2-2-1 1-4 6 2q-2-5-7-2v-3l-2-3 1-7V454q-1-7 2-13l-2-14V309q0-31-4-61a37 37 0 0 0-12-20l-4-3c5 1 4-4 3-6l-6-5v5l-4-2-2-2-2-4-3 2zm41 440v1l2-1v-1zm3-334v8q4-4 0-9m-1 261-4 9 6-2 3 2h1l-3-9-2 4zm0-127-1 9 4-5 1-4zm-39-241h8q-4-6-8 0m43 118-3 2 1 2 6 1zm4-1-1-4-3 3c2 0 2 5 4 1m-35 514-1 1zm-10-1-1 1 2 1zm4-627h1zm33 377h2zm4 10h-1zm-35 236s1 0 0 0M916 165l2-3q2-5 7-5 2 1 5-3l1-4 3 2c-1 4-3 10 3 13h-5l-1-1v1l-10 1h-2zm-600 0 2-5 10 1v4h-7q-3-4-4 0zm133 26c-1 2-3 5-5 0z"></path>
  <path fill="#d13c2f" d="M317 165q1-4 4 0zm11 26c-1 6-2 1-4 0zm591-25 2-1zm12-1v-1zm481 170v-5l2 3zm-297-202v1zm-3 3 1-1zm-52 5v1zm-320 23-1-1h1zm12-14-1 1v-1zm-356-16 1-4 3 2zm450 0 3 3q-5 2-3-3m597 615-1 7h-1l-2 1h-1l-1-1v1l-4 1 3-14 4 1-2 7zm-10-317 3-3h4l-4 5h-2zm0 289h4v2h-4zm1 8 4-1 1 2h-5zm7 33q5 2 0 5h-2v-3zm-2 2v3l-2-2v-2zm1 28-1-2 2 1z"></path>
  <path fill="#d13c2f" d="m1439 757 2-1h1v2h-1zm-1 33-1-1zm-1-33v-1l1 1zm0 6v2zm17-417 4-1 1 2-1 3-4-2zm5 1-1-3h2zm4 8-1-2h1zm-5-5 2 1v1zm4-14-2 1v-1zm-14-6h1zm8 183-3-4 2-1zm10-2 1-1 1 1zm-9 6 1-2 1 1zm-16 121 1-2zm24-23-1 1v-1zm-26 97-4-1v-1zm20-315v3l-1 1zm2 1h1zM269 840l33 2v1c-5 0-2 4-3 6l-11-3h-1l-4-2-1 1 6 6-9 3-2-10q-6 2-8-4m-66-105 4-4 7 3-8 2 3 2-1 1zm54 102 11 2-9 1 1-1-6 2v-2zm-54-342 6 3-5 3zm85 351h-1zm78-3 21-1q-8 5-14 2v8l-3-1c2-4-3-5-4-8m278-1h11q-5 5-11 0m-52 0h15l-8 2-3-1zm0 0-9 1 3-2h2zm-198 0h10zm19 0h8zm328 0 4 1-3 2-3-1zm-80 0h5q-2 5-5 0m29 0h6l-1 2-3-1z"></path>
  <path fill="#d13c2f" d="M634 842h3v1zm58 1 3 1-2 2zm-23 2-1 3-2-1zm-73-2 3 1zm73-1h2l-2 3zm10 0h3zm-287 11 1 1h-2zm280-6h2l-1 1zm69-5-2 1h-1zm-65 1-1 2v-1zm-53 0 3-1zm60 4-1-1h1zm-252-5h2zm206 1v-1h2zm108 0 2-1v1zm-82 4h-1zm71-2v2h-2l1-2zm-350 2-1 1-1-1zm348 0h2v1h-3v-1zm1-4h2v1zm-63 7h1v1zm66-6 1 2z"></path>
  <path fill="#d13c2f" d="M736 844h-3v-1h2zm-57-2v1l-1-2zm-59 0h2zm115 6h2zm0 0-1-1zm334-6 13 1-6 6-3-2 1-2zm-3 1 2-1-4 11h-1l-1-7zm-13-1h9q-4 5-9 0m-35 1h7q-2 5-7 0m76 5-3 4-2-5zm-61-5 5-1q-2 4-5 1m62-1 3 1-3 2-2-2zm-6 0h3l-1 2zm-9 9 1-3 1 1zm-69-9 2 1-2 2zm76 9h-2z"></path>
  <path fill="#d13c2f" d="m1095 842-2 1v-1zm-737 1 5-1q-2 4-5 1m-56 0h5v2zm56 6 1-3 1 1zm-46 0-1 1-1-1zm46 2-2-1 2-1zm8-3v1h-1zm765-5 19-1h9l4 3-1 1-7 2h-7l2-2c-3-4-7-1-10 1q-6 1-9-4m63-1 9 1-9 4zm-13 1 11-1c-3 5-7 2-11 1m31-1h4c-2 2-5 5-8 0zm15 0 3-1q1 7-5 4zm-7 6v2l-2 1v-5zm-48-5 2-1 3 2-1 1zm62 1-2 2zm-69 7h2l-1 1zm69-9h2l-2 2zm0 7 1 2zm-16-3 2-1v1zm-371-3 11-1-7 4-2-2h1v-1l-1 1zm13 1h1zm383-2h7l1 3 6-2 1 3-5 4q-7 0-10 3zm-3 0h2l-1 2z"></path>
  <path fill="#d13c2f" d="m1241 844 1-2h1v2zm-407 3q1 4-4 3l-8 1 4-6 1-1h4q-2 5 3 3m-62 6-1-4 1-5c4-1 2 3 4 6q0 3-4 3m11-11 2 1-1 5-5-1 1-4zm27 0h6l-6 2zm-4 3 2-1v2zm-3-3h2zm-13 1 2-1zm-35 0 10-1v2h-2l-2-1zm12-1h8zm-6 11h-6l1-2zm-8-3-3 1v-1l3-1zm30-8-3 1z"></path>
  <path fill="#d13c2f" d="m767 842-2 1v-2zm-6 1 2 1zm355-1 5 1 6 5-11 1v-1c3-2 0-4 0-6m24 5c3-2 7-5 11-1l-3 2q-4 3-8-1m-18-4h-1l8-1zm5 9v-3l1 1zm169-8q7-2 15-2l1 2-2 3-1 1h-1l-2 2v1l-4-4h-3v1z"></path>
  <path fill="#d13c2f" d="M1299 848h3l4 4v2h-8v-2zm-42-5-6 2zm41 8v2h-3v-1zm-187-2 1 2zm0-6 2-1zm-275 0 2-1zm-2 4 1-1v1zm478-3-1-1 16-1 28-4 4-1v5q-7 0-12 4a8 8 0 0 1-10 0q-6-3-10 1h-5a9 9 0 0 0-10-3m2 8 1-1 1 2zm-8-2 2-2zm75-8-2 2h-1zm-10 6-1-3 3 1zM217 259l-1 25q-5 2-4-3l1-18zm190-53h-19v-4zm24 0h-2v-4q2-7 9-3v1l-4 3zm-20-6-1 1-5-7h12zm-3-3s1 0 0 0m-31 9h-10l-1-1q4-6 11 0zm-11-1h-9q-1-4 4-3l5-1zm52-8h6v3h-6zm-198 48-1 6zm-2 8-1 5q-3-3 1-5m5-14-1 3-3-2zm126-33h-2l-1-3zm91-11 1 3h-3zm-116 1v-2h1zm29 10h-2zm24 0 2 1zm29-4 1 1zm-197 40h-1z"></path>
  <path fill="#d13c2f" d="m431 206 3-3 4-3 2 3h12l7-1 3 3zm179-2-10 2-15-1h-9q4-5 9-2 10 4 18-2l3 2zm407 1h-14l2-6 3 4 9-3zm244 0-7 1q-1 1-3-1v-5zm-61 0h-13l4-3h3l-1 1 1-1 3-2zm108 0-4 1-5-3c5 1 3-6 8-3zm-733 0-14 1 1-3c5 1 9-2 13 2m655-1-4 1-6-1-2-2c5-6 8 0 12 2m-729 2h-8l4-4 4-1zm795 0-10-1v-2l2-1c3 5 6 2 10 0zm-749 0h-7l6-5zm-75-1-5 1q-1-6 5-4zm867 2-8-1v-1h13z"></path>
  <path fill="#d13c2f" d="m539 205-7 1 2-3c1 2 5-3 5 2m114 0-7-1 9-2zm380 0-7 1c2-2 4-6 7-1m-516 1h-10l1-2zm703-2 6 1h-9zm-748 1v-3c3-4 3 1 5 2zm85 0-4 1 1-4zm726 1h-5l5-2zm-69-1h-7zm26-1-4 1 1-3zm-622 0h-5c2-1 3-4 5 0m7 0-3 1 1-4zm38-1h-2l3-3zm-24 2-4 1 1-3zm-156 0-5-1zm800 1v-2l3-1v2zm-734-6 1-1h1zm122 0 1 2h-1zm353 5h-2l1-2zm-347 0h-2l1-3zm592 1h-2l2-2zm0 0v-2l3 1zm-247-5-1 1v-1zm-379 3-3 1zm702-3 2-2 1 1zm-129-2h-2zm-677-1v2zm-98 0 2 1-1 1zm917 11-2 1zm-688-4h-2zm-178 1h-2v-2zm38 0h-2zm731-1 3 1zm-669-2h-1zm436-1h-1l1-1zm8 3 1-1zm214-1v-1zm-728 2-1-1zm856 19-7-7 4 1v-5q5 2 6 5c1 2 2 7-3 6m25 353 1 4 2-4 3 8-1 1-3-2-6 2zm-5 78v-11q1 8 6 14l-2 1zm-25 174 2-2c2 3 5 6-1 9zm31-379h3l-1 4-4 5zm-40-242q4-5 8 1zm43 120 3 4-5-1-1-2zm5-1c-3 4-3-1-5-1l3-3zm-8-10q4 5 0 9zm-4 276q3-4 7 2zm-2 193v-6zm-29-572-5-2 3-2zm29 391v-4zm1-8 2 1-1 3zm0-8-2-3zm-23 251h-2zm25-243v-2h2zm-34 242v2l-2-1zm31-176v-2zm-28-451h1zm-7 624v3h-1zm40-247h2zm4 10h-1zm-9 14v-2zm0 11v-2zm0 148v-2zm4-122-1 1zm-4 10 1 1zM588 842h-2zm624 0h-1zm-363 2 1-1v1zm453 3h-3zm-108-645-1 1z"></path>
</svg>